Weblight.ufo
<glyph name="quotedbl" format="2">
  <advance width="372.0"/>
  <unicode hex="0022"/>
  <outline>
    <contour>
      <point x="93" y="434" type="line"/>
      <point x="124" y="434" type="line"/>
      <point x="124" y="465" type="line"/>
      <point x="155" y="465" type="line"/>
      <point x="155" y="496" type="line"/>
      <point x="124" y="496" type="line"/>
      <point x="124" y="527" type="line"/>
      <point x="155" y="527" type="line"/>
      <point x="155" y="682" type="line"/>
      <point x="62" y="682" type="line"/>
      <point x="62" y="527" type="line"/>
      <point x="93" y="527" type="line"/>
      <point x="93" y="496" type="line"/>
      <point x="62" y="496" type="line"/>
      <point x="62" y="465" type="line"/>
      <point x="93" y="465" type="line"/>
    </contour>
    <contour>
      <point x="248" y="434" type="line"/>
      <point x="279" y="434" type="line"/>
      <point x="279" y="465" type="line"/>
      <point x="310" y="465" type="line"/>
      <point x="310" y="496" type="line"/>
      <point x="279" y="496" type="line"/>
      <point x="279" y="527" type="line"/>
      <point x="310" y="527" type="line"/>
      <point x="310" y="682" type="line"/>
      <point x="217" y="682" type="line"/>
      <point x="217" y="527" type="line"/>
      <point x="248" y="527" type="line"/>
      <point x="248" y="496" type="line"/>
      <point x="217" y="496" type="line"/>
      <point x="217" y="465" type="line"/>
      <point x="248" y="465" type="line"/>
    </contour>
  </outline>
</glyph>
<glyph name="quotesingle" format="2">
  <advance width="155.0"/>
  <unicode hex="0027"/>
  <outline>
    <contour>
      <point x="31" y="434" type="line"/>
      <point x="62" y="434" type="line"/>
      <point x="62" y="465" type="line"/>
      <point x="93" y="465" type="line"/>
      <point x="93" y="496" type="line"/>
      <point x="124" y="496" type="line"/>
      <point x="124" y="682" type="line"/>
      <point x="31" y="682" type="line"/>
      <point x="31" y="558" type="line"/>
      <point x="93" y="558" type="line"/>
      <point x="93" y="527" type="line"/>
      <point x="62" y="527" type="line"/>
      <point x="62" y="496" type="line"/>
      <point x="31" y="496" type="line"/>
    </contour>
  </outline>
</glyph>
<glyph name="plus" format="2">
  <advance width="465.0"/>
  <unicode hex="002B"/>
  <outline>
    <contour>
      <point x="186" y="31" type="line"/>
      <point x="279" y="31" type="line"/>
      <point x="279" y="217" type="line"/>
      <point x="434" y="217" type="line"/>
      <point x="434" y="310" type="line"/>
      <point x="279" y="310" type="line"/>
      <point x="279" y="496" type="line"/>
      <point x="186" y="496" type="line"/>
      <point x="186" y="310" type="line"/>
      <point x="31" y="310" type="line"/>
      <point x="31" y="217" type="line"/>
      <point x="186" y="217" type="line"/>
    </contour>
  </outline>
</glyph>
<glyph name="five" format="2">
  <advance width="496.0"/>
  <unicode hex="0035"/>
  <outline>
    <contour>
      <point x="62" y="62" type="line"/>
      <point x="93" y="62" type="line"/>
      <point x="93" y="31" type="line"/>
      <point x="155" y="31" type="line"/>
      <point x="155" y="0" type="line"/>
      <point x="341" y="0" type="line"/>
      <point x="341" y="31" type="line"/>
      <point x="403" y="31" type="line"/>
      <point x="403" y="62" type="line"/>
      <point x="434" y="62" type="line"/>
      <point x="434" y="124" type="line"/>
      <point x="465" y="124" type="line"/>
      <point x="465" y="341" type="line"/>
      <point x="434" y="341" type="line"/>
      <point x="434" y="403" type="line"/>
      <point x="403" y="403" type="line"/>
      <point x="403" y="434" type="line"/>
      <point x="341" y="434" type="line"/>
      <point x="341" y="465" type="line"/>
      <point x="186" y="465" type="line"/>
      <point x="186" y="434" type="line"/>
      <point x="155" y="434" type="line"/>
      <point x="155" y="558" type="line"/>
      <point x="434" y="558" type="line"/>
      <point x="434" y="651" type="line"/>
      <point x="62" y="651" type="line"/>
      <point x="62" y="310" type="line"/>
      <point x="124" y="310" type="line"/>
      <point x="124" y="341" type="line"/>
      <point x="186" y="341" type="line"/>
      <point x="186" y="372" type="line"/>
      <point x="310" y="372" type="line"/>
      <point x="310" y="341" type="line"/>
      <point x="341" y="341" type="line"/>
      <point x="341" y="310" type="line"/>
      <point x="372" y="310" type="line"/>
      <point x="372" y="155" type="line"/>
      <point x="341" y="155" type="line"/>
      <point x="341" y="124" type="line"/>
      <point x="310" y="124" type="line"/>
      <point x="310" y="93" type="line"/>
      <point x="186" y="93" type="line"/>
      <point x="186" y="124" type="line"/>
      <point x="155" y="124" type="line"/>
      <point x="155" y="155" type="line"/>
      <point x="124" y="155" type="line"/>
      <point x="124" y="217" type="line"/>
      <point x="31" y="217" type="line"/>
      <point x="31" y="124" type="line"/>
      <point x="62" y="124" type="line"/>
    </contour>
  </outline>
</glyph>
<glyph name="six" format="2">
  <advance width="496.0"/>
  <unicode hex="0036"/>
  <outline>
    <contour>
      <point x="62" y="62" type="line"/>
      <point x="93" y="62" type="line"/>
      <point x="93" y="31" type="line"/>
      <point x="155" y="31" type="line"/>
      <point x="155" y="0" type="line"/>
      <point x="341" y="0" type="line"/>
      <point x="341" y="31" type="line"/>
      <point x="403" y="31" type="line"/>
      <point x="403" y="62" type="line"/>
      <point x="434" y="62" type="line"/>
      <point x="434" y="124" type="line"/>
      <point x="465" y="124" type="line"/>
      <point x="465" y="310" type="line"/>
      <point x="434" y="310" type="line"/>
      <point x="434" y="372" type="line"/>
      <point x="403" y="372" type="line"/>
      <point x="403" y="403" type="line"/>
      <point x="341" y="403" type="line"/>
      <point x="341" y="434" type="line"/>
      <point x="155" y="434" type="line"/>
      <point x="155" y="403" type="line"/>
      <point x="124" y="403" type="line"/>
      <point x="124" y="465" type="line"/>
      <point x="155" y="465" type="line"/>
      <point x="155" y="527" type="line"/>
      <point x="186" y="527" type="line"/>
      <point x="186" y="558" type="line"/>
      <point x="310" y="558" type="line"/>
      <point x="310" y="527" type="line"/>
      <point x="372" y="527" type="line"/>
      <point x="372" y="465" type="line"/>
      <point x="465" y="465" type="line"/>
      <point x="465" y="527" type="line"/>
      <point x="434" y="527" type="line"/>
      <point x="434" y="589" type="line"/>
      <point x="403" y="589" type="line"/>
      <point x="403" y="620" type="line"/>
      <point x="341" y="620" type="line"/>
      <point x="341" y="651" type="line"/>
      <point x="155" y="651" type="line"/>
      <point x="155" y="620" type="line"/>
      <point x="93" y="620" type="line"/>
      <point x="93" y="589" type="line"/>
      <point x="62" y="589" type="line"/>
      <point x="62" y="496" type="line"/>
      <point x="31" y="496" type="line"/>
      <point x="31" y="155" type="line"/>
      <point x="62" y="155" type="line"/>
    </contour>
    <contour>
      <point x="310" y="310" type="line"/>
      <point x="341" y="310" type="line"/>
      <point x="341" y="279" type="line"/>
      <point x="372" y="279" type="line"/>
      <point x="372" y="155" type="line"/>
      <point x="341" y="155" type="line"/>
      <point x="341" y="124" type="line"/>
      <point x="310" y="124" type="line"/>
      <point x="310" y="93" type="line"/>
      <point x="186" y="93" type="line"/>
      <point x="186" y="124" type="line"/>
      <point x="155" y="124" type="line"/>
      <point x="155" y="186" type="line"/>
      <point x="124" y="186" type="line"/>
      <point x="124" y="279" type="line"/>
      <point x="155" y="279" type="line"/>
      <point x="155" y="310" type="line"/>
      <point x="186" y="310" type="line"/>
      <point x="186" y="341" type="line"/>
      <point x="310" y="341" type="line"/>
    </contour>
  </outline>
</glyph>
<glyph name="eight" format="2">
  <advance width="496.0"/>
  <unicode hex="0038"/>
  <outline>
    <contour>
      <point x="62" y="62" type="line"/>
      <point x="93" y="62" type="line"/>
      <point x="93" y="31" type="line"/>
      <point x="155" y="31" type="line"/>
      <point x="155" y="0" type="line"/>
      <point x="341" y="0" type="line"/>
      <point x="341" y="31" type="line"/>
      <point x="403" y="31" type="line"/>
      <point x="403" y="62" type="line"/>
      <point x="434" y="62" type="line"/>
      <point x="434" y="124" type="line"/>
      <point x="465" y="124" type="line"/>
      <point x="465" y="279" type="line"/>
      <point x="434" y="279" type="line"/>
      <point x="434" y="310" type="line"/>
      <point x="403" y="310" type="line"/>
      <point x="403" y="341" type="line"/>
      <point x="372" y="341" type="line"/>
      <point x="372" y="372" type="line"/>
      <point x="403" y="372" type="line"/>
      <point x="403" y="403" type="line"/>
      <point x="434" y="403" type="line"/>
      <point x="434" y="465" type="line"/>
      <point x="465" y="465" type="line"/>
      <point x="465" y="527" type="line"/>
      <point x="434" y="527" type="line"/>
      <point x="434" y="589" type="line"/>
      <point x="403" y="589" type="line"/>
      <point x="403" y="620" type="line"/>
      <point x="341" y="620" type="line"/>
      <point x="341" y="651" type="line"/>
      <point x="155" y="651" type="line"/>
      <point x="155" y="620" type="line"/>
      <point x="93" y="620" type="line"/>
      <point x="93" y="589" type="line"/>
      <point x="62" y="589" type="line"/>
      <point x="62" y="527" type="line"/>
      <point x="31" y="527" type="line"/>
      <point x="31" y="465" type="line"/>
      <point x="62" y="465" type="line"/>
      <point x="62" y="403" type="line"/>
      <point x="93" y="403" type="line"/>
      <point x="93" y="372" type="line"/>
      <point x="124" y="372" type="line"/>
      <point x="124" y="341" type="line"/>
      <point x="93" y="341" type="line"/>
      <point x="93" y="310" type="line"/>
      <point x="62" y="310" type="line"/>
      <point x="62" y="279" type="line"/>
      <point x="31" y="279" type="line"/>
      <point x="31" y="124" type="line"/>
      <point x="62" y="124" type="line"/>
    </contour>
    <contour>
      <point x="341" y="496" type="line"/>
      <point x="372" y="496" type="line"/>
      <point x="372" y="465" type="line"/>
      <point x="341" y="465" type="line"/>
      <point x="341" y="434" type="line"/>
      <point x="310" y="434" type="line"/>
      <point x="310" y="403" type="line"/>
      <point x="186" y="403" type="line"/>
      <point x="186" y="434" type="line"/>
      <point x="155" y="434" type="line"/>
      <point x="155" y="465" type="line"/>
      <point x="124" y="465" type="line"/>
      <point x="124" y="496" type="line"/>
      <point x="155" y="496" type="line"/>
      <point x="155" y="527" type="line"/>
      <point x="186" y="527" type="line"/>
      <point x="186" y="558" type="line"/>
      <point x="310" y="558" type="line"/>
      <point x="310" y="527" type="line"/>
      <point x="341" y="527" type="line"/>
    </contour>
    <contour>
      <point x="279" y="279" type="line"/>
      <point x="341" y="279" type="line"/>
      <point x="341" y="248" type="line"/>
      <point x="372" y="248" type="line"/>
      <point x="372" y="155" type="line"/>
      <point x="341" y="155" type="line"/>
      <point x="341" y="124" type="line"/>
      <point x="310" y="124" type="line"/>
      <point x="310" y="93" type="line"/>
      <point x="186" y="93" type="line"/>
      <point x="186" y="124" type="line"/>
      <point x="155" y="124" type="line"/>
      <point x="155" y="155" type="line"/>
      <point x="124" y="155" type="line"/>
      <point x="124" y="248" type="line"/>
      <point x="155" y="248" type="line"/>
      <point x="155" y="279" type="line"/>
      <point x="217" y="279" type="line"/>
      <point x="217" y="310" type="line"/>
      <point x="279" y="310" type="line"/>
    </contour>
  </outline>
</glyph>
<glyph name="greater" format="2">
  <advance width="558.0"/>
  <unicode hex="003E"/>
  <outline>
    <contour>
      <point x="31" y="0" type="line"/>
      <point x="93" y="0" type="line"/>
      <point x="93" y="31" type="line"/>
      <point x="155" y="31" type="line"/>
      <point x="155" y="62" type="line"/>
      <point x="186" y="62" type="line"/>
      <point x="186" y="93" type="line"/>
      <point x="248" y="93" type="line"/>
      <point x="248" y="124" type="line"/>
      <point x="279" y="124" type="line"/>
      <point x="279" y="155" type="line"/>
      <point x="341" y="155" type="line"/>
      <point x="341" y="186" type="line"/>
      <point x="372" y="186" type="line"/>
      <point x="372" y="217" type="line"/>
      <point x="434" y="217" type="line"/>
      <point x="434" y="248" type="line"/>
      <point x="465" y="248" type="line"/>
      <point x="465" y="279" type="line"/>
      <point x="527" y="279" type="line"/>
      <point x="527" y="310" type="line"/>
      <point x="558" y="310" type="line"/>
      <point x="558" y="372" type="line"/>
      <point x="527" y="372" type="line"/>
      <point x="527" y="403" type="line"/>
      <point x="465" y="403" type="line"/>
      <point x="465" y="434" type="line"/>
      <point x="434" y="434" type="line"/>
      <point x="434" y="465" type="line"/>
      <point x="372" y="465" type="line"/>
      <point x="372" y="496" type="line"/>
      <point x="341" y="496" type="line"/>
      <point x="341" y="527" type="line"/>
      <point x="279" y="527" type="line"/>
      <point x="279" y="558" type="line"/>
      <point x="248" y="558" type="line"/>
      <point x="248" y="589" type="line"/>
      <point x="186" y="589" type="line"/>
      <point x="186" y="620" type="line"/>
      <point x="155" y="620" type="line"/>
      <point x="155" y="651" type="line"/>
      <point x="93" y="651" type="line"/>
      <point x="93" y="682" type="line"/>
      <point x="31" y="682" type="line"/>
      <point x="31" y="558" type="line"/>
      <point x="62" y="558" type="line"/>
      <point x="62" y="527" type="line"/>
      <point x="124" y="527" type="line"/>
      <point x="124" y="496" type="line"/>
      <point x="155" y="496" type="line"/>
      <point x="155" y="465" type="line"/>
      <point x="217" y="465" type="line"/>
      <point x="217" y="434" type="line"/>
      <point x="248" y="434" type="line"/>
      <point x="248" y="403" type="line"/>
      <point x="310" y="403" type="line"/>
      <point x="310" y="372" type="line"/>
      <point x="372" y="372" type="line"/>
      <point x="372" y="341" type="line"/>
      <point x="341" y="341" type="line"/>
      <point x="341" y="310" type="line"/>
      <point x="310" y="310" type="line"/>
      <point x="310" y="279" type="line"/>
      <point x="248" y="279" type="line"/>
      <point x="248" y="248" type="line"/>
      <point x="217" y="248" type="line"/>
      <point x="217" y="217" type="line"/>
      <point x="155" y="217" type="line"/>
      <point x="155" y="186" type="line"/>
      <point x="124" y="186" type="line"/>
      <point x="124" y="155" type="line"/>
      <point x="62" y="155" type="line"/>
      <point x="62" y="124" type="line"/>
      <point x="31" y="124" type="line"/>
    </contour>
  </outline>
</glyph>
<glyph name="E" format="2">
  <advance width="496.0"/>
  <unicode hex="0045"/>
  <outline>
    <contour>
      <point x="31" y="0" type="line"/>
      <point x="465" y="0" type="line"/>
      <point x="465" y="93" type="line"/>
      <point x="124" y="93" type="line"/>
      <point x="124" y="310" type="line"/>
      <point x="434" y="310" type="line"/>
      <point x="434" y="403" type="line"/>
      <point x="124" y="403" type="line"/>
      <point x="124" y="589" type="line"/>
      <point x="465" y="589" type="line"/>
      <point x="465" y="682" type="line"/>
      <point x="31" y="682" type="line"/>
    </contour>
  </outline>
</glyph>
<glyph name="F" format="2">
  <advance width="496.0"/>
  <unicode hex="0046"/>
  <outline>
    <contour>
      <point x="31" y="0" type="line"/>
      <point x="124" y="0" type="line"/>
      <point x="124" y="310" type="line"/>
      <point x="434" y="310" type="line"/>
      <point x="434" y="403" type="line"/>
      <point x="124" y="403" type="line"/>
      <point x="124" y="589" type="line"/>
      <point x="465" y="589" type="line"/>
      <point x="465" y="682" type="line"/>
      <point x="31" y="682" type="line"/>
    </contour>
  </outline>
</glyph>
<glyph name="I" format="2">
  <advance width="217.0"/>
  <unicode hex="0049"/>
  <outline>
    <contour>
      <point x="62" y="0" type="line"/>
      <point x="155" y="0" type="line"/>
      <point x="155" y="682" type="line"/>
      <point x="62" y="682" type="line"/>
    </contour>
  </outline>
</glyph>
<glyph name="J" format="2">
  <advance width="279.0"/>
  <unicode hex="004A"/>
  <outline>
    <contour>
      <point x="0" y="0" type="line"/>
      <point x="186" y="0" type="line"/>
      <point x="186" y="31" type="line"/>
      <point x="217" y="31" type="line"/>
      <point x="217" y="62" type="line"/>
      <point x="248" y="62" type="line"/>
      <point x="248" y="682" type="line"/>
      <point x="155" y="682" type="line"/>
      <point x="155" y="124" type="line"/>
      <point x="124" y="124" type="line"/>
      <point x="124" y="93" type="line"/>
      <point x="0" y="93" type="line"/>
    </contour>
  </outline>
</glyph>
<glyph name="M" format="2">
  <advance width="682.0"/>
  <unicode hex="004D"/>
  <outline>
    <contour>
      <point x="31" y="0" type="line"/>
      <point x="124" y="0" type="line"/>
      <point x="124" y="465" type="line"/>
      <point x="155" y="465" type="line"/>
      <point x="155" y="403" type="line"/>
      <point x="186" y="403" type="line"/>
      <point x="186" y="310" type="line"/>
      <point x="217" y="310" type="line"/>
      <point x="217" y="248" type="line"/>
      <point x="248" y="248" type="line"/>
      <point x="248" y="155" type="line"/>
      <point x="279" y="155" type="line"/>
      <point x="279" y="93" type="line"/>
      <point x="310" y="93" type="line"/>
      <point x="310" y="0" type="line"/>
      <point x="372" y="0" type="line"/>
      <point x="372" y="93" type="line"/>
      <point x="403" y="93" type="line"/>
      <point x="403" y="155" type="line"/>
      <point x="434" y="155" type="line"/>
      <point x="434" y="248" type="line"/>
      <point x="465" y="248" type="line"/>
      <point x="465" y="310" type="line"/>
      <point x="496" y="310" type="line"/>
      <point x="496" y="403" type="line"/>
      <point x="527" y="403" type="line"/>
      <point x="527" y="465" type="line"/>
      <point x="558" y="465" type="line"/>
      <point x="558" y="0" type="line"/>
      <point x="651" y="0" type="line"/>
      <point x="651" y="682" type="line"/>
      <point x="527" y="682" type="line"/>
      <point x="527" y="651" type="line"/>
      <point x="496" y="651" type="line"/>
      <point x="496" y="558" type="line"/>
      <point x="465" y="558" type="line"/>
      <point x="465" y="496" type="line"/>
      <point x="434" y="496" type="line"/>
      <point x="434" y="403" type="line"/>
      <point x="403" y="403" type="line"/>
      <point x="403" y="341" type="line"/>
      <point x="372" y="341" type="line"/>
      <point x="372" y="248" type="line"/>
      <point x="310" y="248" type="line"/>
      <point x="310" y="341" type="line"/>
      <point x="279" y="341" type="line"/>
      <point x="279" y="403" type="line"/>
      <point x="248" y="403" type="line"/>
      <point x="248" y="496" type="line"/>
      <point x="217" y="496" type="line"/>
      <point x="217" y="558" type="line"/>
      <point x="186" y="558" type="line"/>
      <point x="186" y="651" type="line"/>
      <point x="155" y="651" type="line"/>
      <point x="155" y="682" type="line"/>
      <point x="31" y="682" type="line"/>
    </contour>
  </outline>
</glyph>
<glyph name="N" format="2">
  <advance width="558.0"/>
  <unicode hex="004E"/>
  <outline>
    <contour>
      <point x="31" y="0" type="line"/>
      <point x="124" y="0" type="line"/>
      <point x="124" y="465" type="line"/>
      <point x="155" y="465" type="line"/>
      <point x="155" y="403" type="line"/>
      <point x="186" y="403" type="line"/>
      <point x="186" y="341" type="line"/>
      <point x="217" y="341" type="line"/>
      <point x="217" y="310" type="line"/>
      <point x="248" y="310" type="line"/>
      <point x="248" y="248" type="line"/>
      <point x="279" y="248" type="line"/>
      <point x="279" y="186" type="line"/>
      <point x="310" y="186" type="line"/>
      <point x="310" y="155" type="line"/>
      <point x="341" y="155" type="line"/>
      <point x="341" y="93" type="line"/>
      <point x="372" y="93" type="line"/>
      <point x="372" y="31" type="line"/>
      <point x="403" y="31" type="line"/>
      <point x="403" y="0" type="line"/>
      <point x="527" y="0" type="line"/>
      <point x="527" y="682" type="line"/>
      <point x="434" y="682" type="line"/>
      <point x="434" y="217" type="line"/>
      <point x="403" y="217" type="line"/>
      <point x="403" y="248" type="line"/>
      <point x="372" y="248" type="line"/>
      <point x="372" y="310" type="line"/>
      <point x="341" y="310" type="line"/>
      <point x="341" y="372" type="line"/>
      <point x="310" y="372" type="line"/>
      <point x="310" y="403" type="line"/>
      <point x="279" y="403" type="line"/>
      <point x="279" y="465" type="line"/>
      <point x="248" y="465" type="line"/>
      <point x="248" y="527" type="line"/>
      <point x="217" y="527" type="line"/>
      <point x="217" y="558" type="line"/>
      <point x="186" y="558" type="line"/>
      <point x="186" y="620" type="line"/>
      <point x="155" y="620" type="line"/>
      <point x="155" y="682" type="line"/>
      <point x="31" y="682" type="line"/>
    </contour>
  </outline>
</glyph>
<glyph name="P" format="2">
  <advance width="558.0"/>
  <unicode hex="0050"/>
  <outline>
    <contour>
      <point x="31" y="0" type="line"/>
      <point x="124" y="0" type="line"/>
      <point x="124" y="279" type="line"/>
      <point x="403" y="279" type="line"/>
      <point x="403" y="310" type="line"/>
      <point x="465" y="310" type="line"/>
      <point x="465" y="341" type="line"/>
      <point x="496" y="341" type="line"/>
      <point x="496" y="403" type="line"/>
      <point x="527" y="403" type="line"/>
      <point x="527" y="558" type="line"/>
      <point x="496" y="558" type="line"/>
      <point x="496" y="620" type="line"/>
      <point x="465" y="620" type="line"/>
      <point x="465" y="651" type="line"/>
      <point x="403" y="651" type="line"/>
      <point x="403" y="682" type="line"/>
      <point x="31" y="682" type="line"/>
    </contour>
    <contour>
      <point x="403" y="527" type="line"/>
      <point x="434" y="527" type="line"/>
      <point x="434" y="434" type="line"/>
      <point x="403" y="434" type="line"/>
      <point x="403" y="403" type="line"/>
      <point x="372" y="403" type="line"/>
      <point x="372" y="372" type="line"/>
      <point x="124" y="372" type="line"/>
      <point x="124" y="589" type="line"/>
      <point x="372" y="589" type="line"/>
      <point x="372" y="558" type="line"/>
      <point x="403" y="558" type="line"/>
    </contour>
  </outline>
</glyph>
<glyph name="U" format="2">
  <advance width="527.0"/>
  <unicode hex="0055"/>
  <outline>
    <contour>
      <point x="62" y="62" type="line"/>
      <point x="93" y="62" type="line"/>
      <point x="93" y="31" type="line"/>
      <point x="155" y="31" type="line"/>
      <point x="155" y="0" type="line"/>
      <point x="372" y="0" type="line"/>
      <point x="372" y="31" type="line"/>
      <point x="434" y="31" type="line"/>
      <point x="434" y="62" type="line"/>
      <point x="465" y="62" type="line"/>
      <point x="465" y="124" type="line"/>
      <point x="496" y="124" type="line"/>
      <point x="496" y="682" type="line"/>
      <point x="403" y="682" type="line"/>
      <point x="403" y="155" type="line"/>
      <point x="372" y="155" type="line"/>
      <point x="372" y="124" type="line"/>
      <point x="341" y="124" type="line"/>
      <point x="341" y="93" type="line"/>
      <point x="186" y="93" type="line"/>
      <point x="186" y="124" type="line"/>
      <point x="155" y="124" type="line"/>
      <point x="155" y="155" type="line"/>
      <point x="124" y="155" type="line"/>
      <point x="124" y="682" type="line"/>
      <point x="31" y="682" type="line"/>
      <point x="31" y="124" type="line"/>
      <point x="62" y="124" type="line"/>
    </contour>
  </outline>
</glyph>
<glyph name="W" format="2">
  <advance width="806.0"/>
  <unicode hex="0057"/>
  <outline>
    <contour>
      <point x="124" y="93" type="line"/>
      <point x="155" y="93" type="line"/>
      <point x="155" y="0" type="line"/>
      <point x="279" y="0" type="line"/>
      <point x="279" y="93" type="line"/>
      <point x="310" y="93" type="line"/>
      <point x="310" y="217" type="line"/>
      <point x="341" y="217" type="line"/>
      <point x="341" y="341" type="line"/>
      <point x="372" y="341" type="line"/>
      <point x="372" y="465" type="line"/>
      <point x="434" y="465" type="line"/>
      <point x="434" y="341" type="line"/>
      <point x="465" y="341" type="line"/>
      <point x="465" y="217" type="line"/>
      <point x="496" y="217" type="line"/>
      <point x="496" y="93" type="line"/>
      <point x="527" y="93" type="line"/>
      <point x="527" y="0" type="line"/>
      <point x="651" y="0" type="line"/>
      <point x="651" y="93" type="line"/>
      <point x="682" y="93" type="line"/>
      <point x="682" y="217" type="line"/>
      <point x="713" y="217" type="line"/>
      <point x="713" y="341" type="line"/>
      <point x="744" y="341" type="line"/>
      <point x="744" y="465" type="line"/>
      <point x="775" y="465" type="line"/>
      <point x="775" y="589" type="line"/>
      <point x="806" y="589" type="line"/>
      <point x="806" y="682" type="line"/>
      <point x="713" y="682" type="line"/>
      <point x="713" y="589" type="line"/>
      <point x="682" y="589" type="line"/>
      <point x="682" y="465" type="line"/>
      <point x="651" y="465" type="line"/>
      <point x="651" y="341" type="line"/>
      <point x="620" y="341" type="line"/>
      <point x="620" y="217" type="line"/>
      <point x="558" y="217" type="line"/>
      <point x="558" y="341" type="line"/>
      <point x="527" y="341" type="line"/>
      <point x="527" y="465" type="line"/>
      <point x="496" y="465" type="line"/>
      <point x="496" y="589" type="line"/>
      <point x="465" y="589" type="line"/>
      <point x="465" y="682" type="line"/>
      <point x="341" y="682" type="line"/>
      <point x="341" y="589" type="line"/>
      <point x="310" y="589" type="line"/>
      <point x="310" y="465" type="line"/>
      <point x="279" y="465" type="line"/>
      <point x="279" y="341" type="line"/>
      <point x="248" y="341" type="line"/>
      <point x="248" y="217" type="line"/>
      <point x="186" y="217" type="line"/>
      <point x="186" y="341" type="line"/>
      <point x="155" y="341" type="line"/>
      <point x="155" y="465" type="line"/>
      <point x="124" y="465" type="line"/>
      <point x="124" y="589" type="line"/>
      <point x="93" y="589" type="line"/>
      <point x="93" y="682" type="line"/>
      <point x="0" y="682" type="line"/>
      <point x="0" y="589" type="line"/>
      <point x="31" y="589" type="line"/>
      <point x="31" y="465" type="line"/>
      <point x="62" y="465" type="line"/>
      <point x="62" y="341" type="line"/>
      <point x="93" y="341" type="line"/>
      <point x="93" y="217" type="line"/>
      <point x="124" y="217" type="line"/>
    </contour>
  </outline>
</glyph>
<glyph name="X" format="2">
  <advance width="589.0"/>
  <unicode hex="0058"/>
  <outline>
    <contour>
      <point x="0" y="0" type="line"/>
      <point x="124" y="0" type="line"/>
      <point x="124" y="31" type="line"/>
      <point x="155" y="31" type="line"/>
      <point x="155" y="93" type="line"/>
      <point x="186" y="93" type="line"/>
      <point x="186" y="124" type="line"/>
      <point x="217" y="124" type="line"/>
      <point x="217" y="186" type="line"/>
      <point x="248" y="186" type="line"/>
      <point x="248" y="217" type="line"/>
      <point x="279" y="217" type="line"/>
      <point x="279" y="279" type="line"/>
      <point x="310" y="279" type="line"/>
      <point x="310" y="217" type="line"/>
      <point x="341" y="217" type="line"/>
      <point x="341" y="186" type="line"/>
      <point x="372" y="186" type="line"/>
      <point x="372" y="124" type="line"/>
      <point x="403" y="124" type="line"/>
      <point x="403" y="93" type="line"/>
      <point x="434" y="93" type="line"/>
      <point x="434" y="31" type="line"/>
      <point x="465" y="31" type="line"/>
      <point x="465" y="0" type="line"/>
      <point x="589" y="0" type="line"/>
      <point x="589" y="31" type="line"/>
      <point x="558" y="31" type="line"/>
      <point x="558" y="93" type="line"/>
      <point x="527" y="93" type="line"/>
      <point x="527" y="124" type="line"/>
      <point x="496" y="124" type="line"/>
      <point x="496" y="186" type="line"/>
      <point x="465" y="186" type="line"/>
      <point x="465" y="217" type="line"/>
      <point x="434" y="217" type="line"/>
      <point x="434" y="279" type="line"/>
      <point x="403" y="279" type="line"/>
      <point x="403" y="310" type="line"/>
      <point x="372" y="310" type="line"/>
      <point x="372" y="403" type="line"/>
      <point x="403" y="403" type="line"/>
      <point x="403" y="465" type="line"/>
      <point x="434" y="465" type="line"/>
      <point x="434" y="496" type="line"/>
      <point x="465" y="496" type="line"/>
      <point x="465" y="558" type="line"/>
      <point x="496" y="558" type="line"/>
      <point x="496" y="589" type="line"/>
      <point x="527" y="589" type="line"/>
      <point x="527" y="651" type="line"/>
      <point x="558" y="651" type="line"/>
      <point x="558" y="682" type="line"/>
      <point x="434" y="682" type="line"/>
      <point x="434" y="651" type="line"/>
      <point x="403" y="651" type="line"/>
      <point x="403" y="589" type="line"/>
      <point x="372" y="589" type="line"/>
      <point x="372" y="558" type="line"/>
      <point x="341" y="558" type="line"/>
      <point x="341" y="496" type="line"/>
      <point x="310" y="496" type="line"/>
      <point x="310" y="465" type="line"/>
      <point x="279" y="465" type="line"/>
      <point x="279" y="496" type="line"/>
      <point x="248" y="496" type="line"/>
      <point x="248" y="558" type="line"/>
      <point x="217" y="558" type="line"/>
      <point x="217" y="589" type="line"/>
      <point x="186" y="589" type="line"/>
      <point x="186" y="651" type="line"/>
      <point x="155" y="651" type="line"/>
      <point x="155" y="682" type="line"/>
      <point x="31" y="682" type="line"/>
      <point x="31" y="651" type="line"/>
      <point x="62" y="651" type="line"/>
      <point x="62" y="589" type="line"/>
      <point x="93" y="589" type="line"/>
      <point x="93" y="558" type="line"/>
      <point x="124" y="558" type="line"/>
      <point x="124" y="496" type="line"/>
      <point x="155" y="496" type="line"/>
      <point x="155" y="465" type="line"/>
      <point x="186" y="465" type="line"/>
      <point x="186" y="403" type="line"/>
      <point x="217" y="403" type="line"/>
      <point x="217" y="310" type="line"/>
      <point x="186" y="310" type="line"/>
      <point x="186" y="279" type="line"/>
      <point x="155" y="279" type="line"/>
      <point x="155" y="217" type="line"/>
      <point x="124" y="217" type="line"/>
      <point x="124" y="186" type="line"/>
      <point x="93" y="186" type="line"/>
      <point x="93" y="124" type="line"/>
      <point x="62" y="124" type="line"/>
      <point x="62" y="93" type="line"/>
      <point x="31" y="93" type="line"/>
      <point x="31" y="31" type="line"/>
      <point x="0" y="31" type="line"/>
    </contour>
  </outline>
</glyph>
<glyph name="bracketleft" format="2">
  <advance width="310.0"/>
  <unicode hex="005B"/>
  <outline>
    <contour>
      <point x="31" y="-93" type="line"/>
      <point x="279" y="-93" type="line"/>
      <point x="279" y="0" type="line"/>
      <point x="124" y="0" type="line"/>
      <point x="124" y="589" type="line"/>
      <point x="279" y="589" type="line"/>
      <point x="279" y="682" type="line"/>
      <point x="31" y="682" type="line"/>
    </contour>
  </outline>
</glyph>
<glyph name="backslash" format="2">
  <advance width="372.0"/>
  <unicode hex="005C"/>
  <outline>
    <contour>
      <point x="248" y="124" type="line"/>
      <point x="279" y="124" type="line"/>
      <point x="279" y="62" type="line"/>
      <point x="310" y="62" type="line"/>
      <point x="310" y="0" type="line"/>
      <point x="372" y="0" type="line"/>
      <point x="372" y="62" type="line"/>
      <point x="341" y="62" type="line"/>
      <point x="341" y="124" type="line"/>
      <point x="310" y="124" type="line"/>
      <point x="310" y="186" type="line"/>
      <point x="279" y="186" type="line"/>
      <point x="279" y="248" type="line"/>
      <point x="248" y="248" type="line"/>
      <point x="248" y="310" type="line"/>
      <point x="217" y="310" type="line"/>
      <point x="217" y="372" type="line"/>
      <point x="186" y="372" type="line"/>
      <point x="186" y="434" type="line"/>
      <point x="155" y="434" type="line"/>
      <point x="155" y="496" type="line"/>
      <point x="124" y="496" type="line"/>
      <point x="124" y="558" type="line"/>
      <point x="93" y="558" type="line"/>
      <point x="93" y="620" type="line"/>
      <point x="62" y="620" type="line"/>
      <point x="62" y="682" type="line"/>
      <point x="0" y="682" type="line"/>
      <point x="0" y="620" type="line"/>
      <point x="31" y="620" type="line"/>
      <point x="31" y="558" type="line"/>
      <point x="62" y="558" type="line"/>
      <point x="62" y="496" type="line"/>
      <point x="93" y="496" type="line"/>
      <point x="93" y="434" type="line"/>
      <point x="124" y="434" type="line"/>
      <point x="124" y="372" type="line"/>
      <point x="155" y="372" type="line"/>
      <point x="155" y="310" type="line"/>
      <point x="186" y="310" type="line"/>
      <point x="186" y="248" type="line"/>
      <point x="217" y="248" type="line"/>
      <point x="217" y="186" type="line"/>
      <point x="248" y="186" type="line"/>
    </contour>
  </outline>
</glyph>
<glyph name="bracketright" format="2">
  <advance width="310.0"/>
  <unicode hex="005D"/>
  <outline>
    <contour>
      <point x="31" y="-93" type="line"/>
      <point x="279" y="-93" type="line"/>
      <point x="279" y="682" type="line"/>
      <point x="31" y="682" type="line"/>
      <point x="31" y="589" type="line"/>
      <point x="186" y="589" type="line"/>
      <point x="186" y="0" type="line"/>
      <point x="31" y="0" type="line"/>
    </contour>
  </outline>
</glyph>
<glyph name="underscore" format="2">
  <advance width="341.0"/>
  <unicode hex="005F"/>
  <outline>
    <contour>
      <point x="0" y="-186" type="line"/>
      <point x="341" y="-186" type="line"/>
      <point x="341" y="-93" type="line"/>
      <point x="0" y="-93" type="line"/>
    </contour>
  </outline>
</glyph>
<glyph name="d" format="2">
  <advance width="465.0"/>
  <unicode hex="0064"/>
  <outline>
    <contour>
      <point x="62" y="62" type="line"/>
      <point x="93" y="62" type="line"/>
      <point x="93" y="31" type="line"/>
      <point x="155" y="31" type="line"/>
      <point x="155" y="0" type="line"/>
      <point x="279" y="0" type="line"/>
      <point x="279" y="31" type="line"/>
      <point x="341" y="31" type="line"/>
      <point x="341" y="0" type="line"/>
      <point x="434" y="0" type="line"/>
      <point x="434" y="682" type="line"/>
      <point x="341" y="682" type="line"/>
      <point x="341" y="434" type="line"/>
      <point x="279" y="434" type="line"/>
      <point x="279" y="465" type="line"/>
      <point x="155" y="465" type="line"/>
      <point x="155" y="434" type="line"/>
      <point x="93" y="434" type="line"/>
      <point x="93" y="403" type="line"/>
      <point x="62" y="403" type="line"/>
      <point x="62" y="341" type="line"/>
      <point x="31" y="341" type="line"/>
      <point x="31" y="124" type="line"/>
      <point x="62" y="124" type="line"/>
    </contour>
    <contour>
      <point x="310" y="310" type="line"/>
      <point x="341" y="310" type="line"/>
      <point x="341" y="155" type="line"/>
      <point x="310" y="155" type="line"/>
      <point x="310" y="124" type="line"/>
      <point x="279" y="124" type="line"/>
      <point x="279" y="93" type="line"/>
      <point x="186" y="93" type="line"/>
      <point x="186" y="124" type="line"/>
      <point x="155" y="124" type="line"/>
      <point x="155" y="155" type="line"/>
      <point x="124" y="155" type="line"/>
      <point x="124" y="310" type="line"/>
      <point x="155" y="310" type="line"/>
      <point x="155" y="341" type="line"/>
      <point x="186" y="341" type="line"/>
      <point x="186" y="372" type="line"/>
      <point x="279" y="372" type="line"/>
      <point x="279" y="341" type="line"/>
      <point x="310" y="341" type="line"/>
    </contour>
  </outline>
</glyph>
<glyph name="h" format="2">
  <advance width="434.0"/>
  <unicode hex="0068"/>
  <outline>
    <contour>
      <point x="31" y="0" type="line"/>
      <point x="124" y="0" type="line"/>
      <point x="124" y="310" type="line"/>
      <point x="155" y="310" type="line"/>
      <point x="155" y="341" type="line"/>
      <point x="186" y="341" type="line"/>
      <point x="186" y="372" type="line"/>
      <point x="248" y="372" type="line"/>
      <point x="248" y="341" type="line"/>
      <point x="279" y="341" type="line"/>
      <point x="279" y="310" type="line"/>
      <point x="310" y="310" type="line"/>
      <point x="310" y="0" type="line"/>
      <point x="403" y="0" type="line"/>
      <point x="403" y="372" type="line"/>
      <point x="372" y="372" type="line"/>
      <point x="372" y="434" type="line"/>
      <point x="310" y="434" type="line"/>
      <point x="310" y="465" type="line"/>
      <point x="186" y="465" type="line"/>
      <point x="186" y="434" type="line"/>
      <point x="155" y="434" type="line"/>
      <point x="155" y="403" type="line"/>
      <point x="124" y="403" type="line"/>
      <point x="124" y="682" type="line"/>
      <point x="31" y="682" type="line"/>
    </contour>
  </outline>
</glyph>
<glyph name="n" format="2">
  <advance width="434.0"/>
  <unicode hex="006E"/>
  <outline>
    <contour>
      <point x="31" y="0" type="line"/>
      <point x="124" y="0" type="line"/>
      <point x="124" y="341" type="line"/>
      <point x="155" y="341" type="line"/>
      <point x="155" y="372" type="line"/>
      <point x="279" y="372" type="line"/>
      <point x="279" y="341" type="line"/>
      <point x="310" y="341" type="line"/>
      <point x="310" y="0" type="line"/>
      <point x="403" y="0" type="line"/>
      <point x="403" y="372" type="line"/>
      <point x="372" y="372" type="line"/>
      <point x="372" y="434" type="line"/>
      <point x="310" y="434" type="line"/>
      <point x="310" y="465" type="line"/>
      <point x="186" y="465" type="line"/>
      <point x="186" y="434" type="line"/>
      <point x="155" y="434" type="line"/>
      <point x="155" y="403" type="line"/>
      <point x="124" y="403" type="line"/>
      <point x="124" y="465" type="line"/>
      <point x="31" y="465" type="line"/>
    </contour>
  </outline>
</glyph>
<glyph name="r" format="2">
  <advance width="279.0"/>
  <unicode hex="0072"/>
  <outline>
    <contour>
      <point x="31" y="0" type="line"/>
      <point x="124" y="0" type="line"/>
      <point x="124" y="310" type="line"/>
      <point x="155" y="310" type="line"/>
      <point x="155" y="341" type="line"/>
      <point x="186" y="341" type="line"/>
      <point x="186" y="372" type="line"/>
      <point x="279" y="372" type="line"/>
      <point x="279" y="465" type="line"/>
      <point x="186" y="465" type="line"/>
      <point x="186" y="434" type="line"/>
      <point x="155" y="434" type="line"/>
      <point x="155" y="403" type="line"/>
      <point x="124" y="403" type="line"/>
      <point x="124" y="465" type="line"/>
      <point x="31" y="465" type="line"/>
    </contour>
  </outline>
</glyph>
<glyph name="t" format="2">
  <advance width="279.0"/>
  <unicode hex="0074"/>
  <outline>
    <contour>
      <point x="62" y="31" type="line"/>
      <point x="93" y="31" type="line"/>
      <point x="93" y="0" type="line"/>
      <point x="248" y="0" type="line"/>
      <point x="248" y="93" type="line"/>
      <point x="155" y="93" type="line"/>
      <point x="155" y="372" type="line"/>
      <point x="248" y="372" type="line"/>
      <point x="248" y="465" type="line"/>
      <point x="155" y="465" type="line"/>
      <point x="155" y="620" type="line"/>
      <point x="62" y="620" type="line"/>
      <point x="62" y="465" type="line"/>
      <point x="0" y="465" type="line"/>
      <point x="0" y="372" type="line"/>
      <point x="62" y="372" type="line"/>
    </contour>
  </outline>
</glyph>
<glyph name="x" format="2">
  <advance width="372.0"/>
  <unicode hex="0078"/>
  <outline>
    <contour>
      <point x="0" y="0" type="line"/>
      <point x="93" y="0" type="line"/>
      <point x="93" y="31" type="line"/>
      <point x="124" y="31" type="line"/>
      <point x="124" y="93" type="line"/>
      <point x="155" y="93" type="line"/>
      <point x="155" y="124" type="line"/>
      <point x="217" y="124" type="line"/>
      <point x="217" y="93" type="line"/>
      <point x="248" y="93" type="line"/>
      <point x="248" y="31" type="line"/>
      <point x="279" y="31" type="line"/>
      <point x="279" y="0" type="line"/>
      <point x="372" y="0" type="line"/>
      <point x="372" y="62" type="line"/>
      <point x="341" y="62" type="line"/>
      <point x="341" y="124" type="line"/>
      <point x="310" y="124" type="line"/>
      <point x="310" y="155" type="line"/>
      <point x="279" y="155" type="line"/>
      <point x="279" y="217" type="line"/>
      <point x="248" y="217" type="line"/>
      <point x="248" y="248" type="line"/>
      <point x="279" y="248" type="line"/>
      <point x="279" y="310" type="line"/>
      <point x="310" y="310" type="line"/>
      <point x="310" y="372" type="line"/>
      <point x="341" y="372" type="line"/>
      <point x="341" y="403" type="line"/>
      <point x="372" y="403" type="line"/>
      <point x="372" y="465" type="line"/>
      <point x="279" y="465" type="line"/>
      <point x="279" y="434" type="line"/>
      <point x="248" y="434" type="line"/>
      <point x="248" y="372" type="line"/>
      <point x="217" y="372" type="line"/>
      <point x="217" y="341" type="line"/>
      <point x="155" y="341" type="line"/>
      <point x="155" y="372" type="line"/>
      <point x="124" y="372" type="line"/>
      <point x="124" y="434" type="line"/>
      <point x="93" y="434" type="line"/>
      <point x="93" y="465" type="line"/>
      <point x="0" y="465" type="line"/>
      <point x="0" y="403" type="line"/>
      <point x="31" y="403" type="line"/>
      <point x="31" y="341" type="line"/>
      <point x="62" y="341" type="line"/>
      <point x="62" y="310" type="line"/>
      <point x="93" y="310" type="line"/>
      <point x="93" y="248" type="line"/>
      <point x="124" y="248" type="line"/>
      <point x="124" y="217" type="line"/>
      <point x="93" y="217" type="line"/>
      <point x="93" y="155" type="line"/>
      <point x="62" y="155" type="line"/>
      <point x="62" y="124" type="line"/>
      <point x="31" y="124" type="line"/>
      <point x="31" y="62" type="line"/>
      <point x="0" y="62" type="line"/>
    </contour>
  </outline>
</glyph>
<glyph name="z" format="2">
  <advance width="434.0"/>
  <unicode hex="007A"/>
  <outline>
    <contour>
      <point x="31" y="0" type="line"/>
      <point x="403" y="0" type="line"/>
      <point x="403" y="93" type="line"/>
      <point x="155" y="93" type="line"/>
      <point x="155" y="124" type="line"/>
      <point x="186" y="124" type="line"/>
      <point x="186" y="155" type="line"/>
      <point x="217" y="155" type="line"/>
      <point x="217" y="186" type="line"/>
      <point x="248" y="186" type="line"/>
      <point x="248" y="217" type="line"/>
      <point x="279" y="217" type="line"/>
      <point x="279" y="248" type="line"/>
      <point x="310" y="248" type="line"/>
      <point x="310" y="279" type="line"/>
      <point x="341" y="279" type="line"/>
      <point x="341" y="310" type="line"/>
      <point x="372" y="310" type="line"/>
      <point x="372" y="341" type="line"/>
      <point x="403" y="341" type="line"/>
      <point x="403" y="465" type="line"/>
      <point x="31" y="465" type="line"/>
      <point x="31" y="372" type="line"/>
      <point x="279" y="372" type="line"/>
      <point x="279" y="341" type="line"/>
      <point x="248" y="341" type="line"/>
      <point x="248" y="310" type="line"/>
      <point x="217" y="310" type="line"/>
      <point x="217" y="279" type="line"/>
      <point x="186" y="279" type="line"/>
      <point x="186" y="248" type="line"/>
      <point x="155" y="248" type="line"/>
      <point x="155" y="217" type="line"/>
      <point x="124" y="217" type="line"/>
      <point x="124" y="186" type="line"/>
      <point x="93" y="186" type="line"/>
      <point x="93" y="155" type="line"/>
      <point x="62" y="155" type="line"/>
      <point x="62" y="124" type="line"/>
      <point x="31" y="124" type="line"/>
    </contour>
  </outline>
</glyph>
<glyph name="braceleft" format="2">
  <advance width="372.0"/>
  <unicode hex="007B"/>
  <outline>
    <contour>
      <point x="124" y="-31" type="line"/>
      <point x="155" y="-31" type="line"/>
      <point x="155" y="-62" type="line"/>
      <point x="186" y="-62" type="line"/>
      <point x="186" y="-93" type="line"/>
      <point x="341" y="-93" type="line"/>
      <point x="341" y="0" type="line"/>
      <point x="248" y="0" type="line"/>
      <point x="248" y="31" type="line"/>
      <point x="217" y="31" type="line"/>
      <point x="217" y="279" type="line"/>
      <point x="155" y="279" type="line"/>
      <point x="155" y="341" type="line"/>
      <point x="217" y="341" type="line"/>
      <point x="217" y="558" type="line"/>
      <point x="248" y="558" type="line"/>
      <point x="248" y="589" type="line"/>
      <point x="341" y="589" type="line"/>
      <point x="341" y="682" type="line"/>
      <point x="186" y="682" type="line"/>
      <point x="186" y="651" type="line"/>
      <point x="155" y="651" type="line"/>
      <point x="155" y="620" type="line"/>
      <point x="124" y="620" type="line"/>
      <point x="124" y="372" type="line"/>
      <point x="93" y="372" type="line"/>
      <point x="93" y="341" type="line"/>
      <point x="31" y="341" type="line"/>
      <point x="31" y="279" type="line"/>
      <point x="93" y="279" type="line"/>
      <point x="93" y="248" type="line"/>
      <point x="124" y="248" type="line"/>
    </contour>
  </outline>
</glyph>
<glyph name="braceright" format="2">
  <advance width="372.0"/>
  <unicode hex="007D"/>
  <outline>
    <contour>
      <point x="31" y="-93" type="line"/>
      <point x="186" y="-93" type="line"/>
      <point x="186" y="-62" type="line"/>
      <point x="217" y="-62" type="line"/>
      <point x="217" y="-31" type="line"/>
      <point x="248" y="-31" type="line"/>
      <point x="248" y="248" type="line"/>
      <point x="279" y="248" type="line"/>
      <point x="279" y="279" type="line"/>
      <point x="341" y="279" type="line"/>
      <point x="341" y="341" type="line"/>
      <point x="279" y="341" type="line"/>
      <point x="279" y="372" type="line"/>
      <point x="248" y="372" type="line"/>
      <point x="248" y="620" type="line"/>
      <point x="217" y="620" type="line"/>
      <point x="217" y="651" type="line"/>
      <point x="186" y="651" type="line"/>
      <point x="186" y="682" type="line"/>
      <point x="31" y="682" type="line"/>
      <point x="31" y="589" type="line"/>
      <point x="124" y="589" type="line"/>
      <point x="124" y="558" type="line"/>
      <point x="155" y="558" type="line"/>
      <point x="155" y="341" type="line"/>
      <point x="217" y="341" type="line"/>
      <point x="217" y="279" type="line"/>
      <point x="155" y="279" type="line"/>
      <point x="155" y="31" type="line"/>
      <point x="124" y="31" type="line"/>
      <point x="124" y="0" type="line"/>
      <point x="31" y="0" type="line"/>
    </contour>
  </outline>
</glyph>
<glyph name="asciitilde" format="2">
  <advance width="496.0"/>
  <unicode hex="007E"/>
  <outline>
    <contour>
      <point x="62" y="558" type="line"/>
      <point x="124" y="558" type="line"/>
      <point x="124" y="589" type="line"/>
      <point x="155" y="589" type="line"/>
      <point x="155" y="620" type="line"/>
      <point x="186" y="620" type="line"/>
      <point x="186" y="589" type="line"/>
      <point x="217" y="589" type="line"/>
      <point x="217" y="558" type="line"/>
      <point x="279" y="558" type="line"/>
      <point x="279" y="527" type="line"/>
      <point x="372" y="527" type="line"/>
      <point x="372" y="558" type="line"/>
      <point x="434" y="558" type="line"/>
      <point x="434" y="589" type="line"/>
      <point x="465" y="589" type="line"/>
      <point x="465" y="651" type="line"/>
      <point x="434" y="651" type="line"/>
      <point x="434" y="682" type="line"/>
      <point x="372" y="682" type="line"/>
      <point x="372" y="651" type="line"/>
      <point x="341" y="651" type="line"/>
      <point x="341" y="620" type="line"/>
      <point x="310" y="620" type="line"/>
      <point x="310" y="651" type="line"/>
      <point x="279" y="651" type="line"/>
      <point x="279" y="682" type="line"/>
      <point x="217" y="682" type="line"/>
      <point x="217" y="713" type="line"/>
      <point x="124" y="713" type="line"/>
      <point x="124" y="682" type="line"/>
      <point x="62" y="682" type="line"/>
      <point x="62" y="651" type="line"/>
      <point x="31" y="651" type="line"/>
      <point x="31" y="589" type="line"/>
      <point x="62" y="589" type="line"/>
    </contour>
  </outline>
</glyph>
<glyph name="uni0083" format="2">
  <advance width="465.0"/>
  <unicode hex="0083"/>
  <outline>
    <contour>
      <point x="93" y="0" type="line"/>
      <point x="186" y="0" type="line"/>
      <point x="186" y="372" type="line"/>
      <point x="279" y="372" type="line"/>
      <point x="279" y="465" type="line"/>
      <point x="186" y="465" type="line"/>
      <point x="186" y="589" type="line"/>
      <point x="310" y="589" type="line"/>
      <point x="310" y="0" type="line"/>
      <point x="403" y="0" type="line"/>
      <point x="403" y="682" type="line"/>
      <point x="186" y="682" type="line"/>
      <point x="186" y="651" type="line"/>
      <point x="124" y="651" type="line"/>
      <point x="124" y="589" type="line"/>
      <point x="93" y="589" type="line"/>
      <point x="93" y="465" type="line"/>
      <point x="0" y="465" type="line"/>
      <point x="0" y="372" type="line"/>
      <point x="93" y="372" type="line"/>
    </contour>
  </outline>
</glyph>
<glyph name="uni0084" format="2">
  <advance width="403.0"/>
  <unicode hex="0084"/>
  <outline>
    <contour>
      <point x="155" y="558" type="line"/>
      <point x="186" y="558" type="line"/>
      <point x="186" y="527" type="line"/>
      <point x="217" y="527" type="line"/>
      <point x="217" y="558" type="line"/>
      <point x="248" y="558" type="line"/>
      <point x="248" y="651" type="line"/>
      <point x="217" y="651" type="line"/>
      <point x="217" y="682" type="line"/>
      <point x="186" y="682" type="line"/>
      <point x="186" y="651" type="line"/>
      <point x="155" y="651" type="line"/>
    </contour>
    <contour>
      <point x="62" y="465" type="line"/>
      <point x="124" y="465" type="line"/>
      <point x="124" y="496" type="line"/>
      <point x="186" y="496" type="line"/>
      <point x="186" y="527" type="line"/>
      <point x="124" y="527" type="line"/>
      <point x="124" y="558" type="line"/>
      <point x="62" y="558" type="line"/>
      <point x="62" y="527" type="line"/>
      <point x="31" y="527" type="line"/>
      <point x="31" y="496" type="line"/>
      <point x="62" y="496" type="line"/>
    </contour>
    <contour>
      <point x="279" y="465" type="line"/>
      <point x="341" y="465" type="line"/>
      <point x="341" y="496" type="line"/>
      <point x="372" y="496" type="line"/>
      <point x="372" y="527" type="line"/>
      <point x="341" y="527" type="line"/>
      <point x="341" y="558" type="line"/>
      <point x="279" y="558" type="line"/>
      <point x="279" y="527" type="line"/>
      <point x="217" y="527" type="line"/>
      <point x="217" y="496" type="line"/>
      <point x="279" y="496" type="line"/>
    </contour>
    <contour>
      <point x="155" y="186" type="line"/>
      <point x="186" y="186" type="line"/>
      <point x="186" y="124" type="line"/>
      <point x="217" y="124" type="line"/>
      <point x="217" y="186" type="line"/>
      <point x="248" y="186" type="line"/>
      <point x="248" y="434" type="line"/>
      <point x="217" y="434" type="line"/>
      <point x="217" y="496" type="line"/>
      <point x="186" y="496" type="line"/>
      <point x="186" y="434" type="line"/>
      <point x="155" y="434" type="line"/>
    </contour>
    <contour>
      <point x="62" y="62" type="line"/>
      <point x="124" y="62" type="line"/>
      <point x="124" y="93" type="line"/>
      <point x="186" y="93" type="line"/>
      <point x="186" y="124" type="line"/>
      <point x="124" y="124" type="line"/>
      <point x="124" y="155" type="line"/>
      <point x="62" y="155" type="line"/>
      <point x="62" y="124" type="line"/>
      <point x="31" y="124" type="line"/>
      <point x="31" y="93" type="line"/>
      <point x="62" y="93" type="line"/>
    </contour>
    <contour>
      <point x="279" y="62" type="line"/>
      <point x="341" y="62" type="line"/>
      <point x="341" y="93" type="line"/>
      <point x="372" y="93" type="line"/>
      <point x="372" y="124" type="line"/>
      <point x="341" y="124" type="line"/>
      <point x="341" y="155" type="line"/>
      <point x="279" y="155" type="line"/>
      <point x="279" y="124" type="line"/>
      <point x="217" y="124" type="line"/>
      <point x="217" y="93" type="line"/>
      <point x="279" y="93" type="line"/>
    </contour>
    <contour>
      <point x="155" y="-31" type="line"/>
      <point x="186" y="-31" type="line"/>
      <point x="186" y="-62" type="line"/>
      <point x="217" y="-62" type="line"/>
      <point x="217" y="-31" type="line"/>
      <point x="248" y="-31" type="line"/>
      <point x="248" y="31" type="line"/>
      <point x="217" y="31" type="line"/>
      <point x="217" y="93" type="line"/>
      <point x="186" y="93" type="line"/>
      <point x="186" y="31" type="line"/>
      <point x="155" y="31" type="line"/>
    </contour>
  </outline>
</glyph>
<glyph name="uni0085" format="2">
  <advance width="1085.0"/>
  <unicode hex="0085"/>
  <outline>
    <contour>
      <point x="124" y="279" type="line"/>
      <point x="248" y="279" type="line"/>
      <point x="248" y="310" type="line"/>
      <point x="310" y="310" type="line"/>
      <point x="310" y="403" type="line"/>
      <point x="341" y="403" type="line"/>
      <point x="341" y="558" type="line"/>
      <point x="310" y="558" type="line"/>
      <point x="310" y="651" type="line"/>
      <point x="248" y="651" type="line"/>
      <point x="248" y="682" type="line"/>
      <point x="124" y="682" type="line"/>
      <point x="124" y="651" type="line"/>
      <point x="62" y="651" type="line"/>
      <point x="62" y="558" type="line"/>
      <point x="31" y="558" type="line"/>
      <point x="31" y="403" type="line"/>
      <point x="62" y="403" type="line"/>
      <point x="62" y="310" type="line"/>
      <point x="124" y="310" type="line"/>
    </contour>
    <contour>
      <point x="186" y="0" type="line"/>
      <point x="248" y="0" type="line"/>
      <point x="248" y="62" type="line"/>
      <point x="279" y="62" type="line"/>
      <point x="279" y="124" type="line"/>
      <point x="310" y="124" type="line"/>
      <point x="310" y="186" type="line"/>
      <point x="341" y="186" type="line"/>
      <point x="341" y="248" type="line"/>
      <point x="372" y="248" type="line"/>
      <point x="372" y="310" type="line"/>
      <point x="403" y="310" type="line"/>
      <point x="403" y="372" type="line"/>
      <point x="434" y="372" type="line"/>
      <point x="434" y="434" type="line"/>
      <point x="465" y="434" type="line"/>
      <point x="465" y="496" type="line"/>
      <point x="496" y="496" type="line"/>
      <point x="496" y="558" type="line"/>
      <point x="527" y="558" type="line"/>
      <point x="527" y="620" type="line"/>
      <point x="558" y="620" type="line"/>
      <point x="558" y="682" type="line"/>
      <point x="496" y="682" type="line"/>
      <point x="496" y="620" type="line"/>
      <point x="465" y="620" type="line"/>
      <point x="465" y="558" type="line"/>
      <point x="434" y="558" type="line"/>
      <point x="434" y="496" type="line"/>
      <point x="403" y="496" type="line"/>
      <point x="403" y="434" type="line"/>
      <point x="372" y="434" type="line"/>
      <point x="372" y="372" type="line"/>
      <point x="341" y="372" type="line"/>
      <point x="341" y="310" type="line"/>
      <point x="310" y="310" type="line"/>
      <point x="310" y="248" type="line"/>
      <point x="279" y="248" type="line"/>
      <point x="279" y="186" type="line"/>
      <point x="248" y="186" type="line"/>
      <point x="248" y="124" type="line"/>
      <point x="217" y="124" type="line"/>
      <point x="217" y="62" type="line"/>
      <point x="186" y="62" type="line"/>
    </contour>
    <contour>
      <point x="403" y="124" type="line"/>
      <point x="434" y="124" type="line"/>
      <point x="434" y="31" type="line"/>
      <point x="496" y="31" type="line"/>
      <point x="496" y="0" type="line"/>
      <point x="620" y="0" type="line"/>
      <point x="620" y="31" type="line"/>
      <point x="682" y="31" type="line"/>
      <point x="682" y="124" type="line"/>
      <point x="713" y="124" type="line"/>
      <point x="713" y="279" type="line"/>
      <point x="682" y="279" type="line"/>
      <point x="682" y="372" type="line"/>
      <point x="620" y="372" type="line"/>
      <point x="620" y="403" type="line"/>
      <point x="496" y="403" type="line"/>
      <point x="496" y="372" type="line"/>
      <point x="434" y="372" type="line"/>
      <point x="434" y="279" type="line"/>
      <point x="403" y="279" type="line"/>
    </contour>
    <contour>
      <point x="744" y="124" type="line"/>
      <point x="775" y="124" type="line"/>
      <point x="775" y="31" type="line"/>
      <point x="837" y="31" type="line"/>
      <point x="837" y="0" type="line"/>
      <point x="961" y="0" type="line"/>
      <point x="961" y="31" type="line"/>
      <point x="1023" y="31" type="line"/>
      <point x="1023" y="124" type="line"/>
      <point x="1054" y="124" type="line"/>
      <point x="1054" y="279" type="line"/>
      <point x="1023" y="279" type="line"/>
      <point x="1023" y="372" type="line"/>
      <point x="961" y="372" type="line"/>
      <point x="961" y="403" type="line"/>
      <point x="837" y="403" type="line"/>
      <point x="837" y="372" type="line"/>
      <point x="775" y="372" type="line"/>
      <point x="775" y="279" type="line"/>
      <point x="744" y="279" type="line"/>
    </contour>
    <contour>
      <point x="248" y="527" type="line"/>
      <point x="279" y="527" type="line"/>
      <point x="279" y="434" type="line"/>
      <point x="248" y="434" type="line"/>
      <point x="248" y="372" type="line"/>
      <point x="217" y="372" type="line"/>
      <point x="217" y="341" type="line"/>
      <point x="155" y="341" type="line"/>
      <point x="155" y="372" type="line"/>
      <point x="124" y="372" type="line"/>
      <point x="124" y="434" type="line"/>
      <point x="93" y="434" type="line"/>
      <point x="93" y="527" type="line"/>
      <point x="124" y="527" type="line"/>
      <point x="124" y="589" type="line"/>
      <point x="155" y="589" type="line"/>
      <point x="155" y="620" type="line"/>
      <point x="217" y="620" type="line"/>
      <point x="217" y="589" type="line"/>
      <point x="248" y="589" type="line"/>
    </contour>
    <contour>
      <point x="589" y="310" type="line"/>
      <point x="620" y="310" type="line"/>
      <point x="620" y="248" type="line"/>
      <point x="651" y="248" type="line"/>
      <point x="651" y="155" type="line"/>
      <point x="620" y="155" type="line"/>
      <point x="620" y="93" type="line"/>
      <point x="589" y="93" type="line"/>
      <point x="589" y="62" type="line"/>
      <point x="527" y="62" type="line"/>
      <point x="527" y="93" type="line"/>
      <point x="496" y="93" type="line"/>
      <point x="496" y="155" type="line"/>
      <point x="465" y="155" type="line"/>
      <point x="465" y="248" type="line"/>
      <point x="496" y="248" type="line"/>
      <point x="496" y="310" type="line"/>
      <point x="527" y="310" type="line"/>
      <point x="527" y="341" type="line"/>
      <point x="589" y="341" type="line"/>
    </contour>
    <contour>
      <point x="930" y="310" type="line"/>
      <point x="961" y="310" type="line"/>
      <point x="961" y="248" type="line"/>
      <point x="992" y="248" type="line"/>
      <point x="992" y="155" type="line"/>
      <point x="961" y="155" type="line"/>
      <point x="961" y="93" type="line"/>
      <point x="930" y="93" type="line"/>
      <point x="930" y="62" type="line"/>
      <point x="868" y="62" type="line"/>
      <point x="868" y="93" type="line"/>
      <point x="837" y="93" type="line"/>
      <point x="837" y="155" type="line"/>
      <point x="806" y="155" type="line"/>
      <point x="806" y="248" type="line"/>
      <point x="837" y="248" type="line"/>
      <point x="837" y="310" type="line"/>
      <point x="868" y="310" type="line"/>
      <point x="868" y="341" type="line"/>
      <point x="930" y="341" type="line"/>
    </contour>
  </outline>
</glyph>
<glyph name="uni0086" format="2">
  <advance width="527.0"/>
  <unicode hex="0086"/>
  <outline>
    <contour>
      <point x="0" y="-155" type="line"/>
      <point x="124" y="-155" type="line"/>
      <point x="124" y="-124" type="line"/>
      <point x="186" y="-124" type="line"/>
      <point x="186" y="-93" type="line"/>
      <point x="217" y="-93" type="line"/>
      <point x="217" y="0" type="line"/>
      <point x="248" y="0" type="line"/>
      <point x="248" y="124" type="line"/>
      <point x="279" y="124" type="line"/>
      <point x="279" y="248" type="line"/>
      <point x="310" y="248" type="line"/>
      <point x="310" y="310" type="line"/>
      <point x="434" y="310" type="line"/>
      <point x="434" y="403" type="line"/>
      <point x="341" y="403" type="line"/>
      <point x="341" y="496" type="line"/>
      <point x="372" y="496" type="line"/>
      <point x="372" y="558" type="line"/>
      <point x="403" y="558" type="line"/>
      <point x="403" y="589" type="line"/>
      <point x="527" y="589" type="line"/>
      <point x="527" y="682" type="line"/>
      <point x="372" y="682" type="line"/>
      <point x="372" y="651" type="line"/>
      <point x="310" y="651" type="line"/>
      <point x="310" y="589" type="line"/>
      <point x="279" y="589" type="line"/>
      <point x="279" y="496" type="line"/>
      <point x="248" y="496" type="line"/>
      <point x="248" y="403" type="line"/>
      <point x="93" y="403" type="line"/>
      <point x="93" y="310" type="line"/>
      <point x="217" y="310" type="line"/>
      <point x="217" y="248" type="line"/>
      <point x="186" y="248" type="line"/>
      <point x="186" y="124" type="line"/>
      <point x="155" y="124" type="line"/>
      <point x="155" y="0" type="line"/>
      <point x="124" y="0" type="line"/>
      <point x="124" y="-31" type="line"/>
      <point x="93" y="-31" type="line"/>
      <point x="93" y="-62" type="line"/>
      <point x="0" y="-62" type="line"/>
    </contour>
  </outline>
</glyph>
<glyph name="uni0088" format="2">
  <advance width="310.0"/>
  <unicode hex="0088"/>
  <outline>
    <contour>
      <point x="93" y="0" type="line"/>
      <point x="186" y="0" type="line"/>
      <point x="186" y="372" type="line"/>
      <point x="217" y="372" type="line"/>
      <point x="217" y="403" type="line"/>
      <point x="279" y="403" type="line"/>
      <point x="279" y="527" type="line"/>
      <point x="248" y="527" type="line"/>
      <point x="248" y="496" type="line"/>
      <point x="186" y="496" type="line"/>
      <point x="186" y="682" type="line"/>
      <point x="93" y="682" type="line"/>
      <point x="93" y="434" type="line"/>
      <point x="62" y="434" type="line"/>
      <point x="62" y="403" type="line"/>
      <point x="0" y="403" type="line"/>
      <point x="0" y="279" type="line"/>
      <point x="31" y="279" type="line"/>
      <point x="31" y="310" type="line"/>
      <point x="93" y="310" type="line"/>
    </contour>
  </outline>
</glyph>
<glyph name="uni008a" format="2">
  <advance width="217.0"/>
  <unicode hex="008A"/>
  <outline>
    <contour>
      <point x="62" y="0" type="line"/>
      <point x="124" y="0" type="line"/>
      <point x="124" y="-31" type="line"/>
      <point x="93" y="-31" type="line"/>
      <point x="93" y="-62" type="line"/>
      <point x="62" y="-62" type="line"/>
      <point x="62" y="-124" type="line"/>
      <point x="93" y="-124" type="line"/>
      <point x="93" y="-93" type="line"/>
      <point x="124" y="-93" type="line"/>
      <point x="124" y="-62" type="line"/>
      <point x="155" y="-62" type="line"/>
      <point x="155" y="124" type="line"/>
      <point x="62" y="124" type="line"/>
    </contour>
  </outline>
</glyph>
<glyph name="uni008d" format="2">
  <advance width="434.0"/>
  <unicode hex="008D"/>
  <outline>
    <contour>
      <point x="186" y="527" type="line"/>
      <point x="248" y="527" type="line"/>
      <point x="248" y="558" type="line"/>
      <point x="279" y="558" type="line"/>
      <point x="279" y="589" type="line"/>
      <point x="310" y="589" type="line"/>
      <point x="310" y="620" type="line"/>
      <point x="341" y="620" type="line"/>
      <point x="341" y="651" type="line"/>
      <point x="248" y="651" type="line"/>
      <point x="248" y="620" type="line"/>
      <point x="186" y="620" type="line"/>
      <point x="186" y="651" type="line"/>
      <point x="93" y="651" type="line"/>
      <point x="93" y="620" type="line"/>
      <point x="124" y="620" type="line"/>
      <point x="124" y="589" type="line"/>
      <point x="155" y="589" type="line"/>
      <point x="155" y="558" type="line"/>
      <point x="186" y="558" type="line"/>
    </contour>
    <contour>
      <point x="31" y="0" type="line"/>
      <point x="403" y="0" type="line"/>
      <point x="403" y="93" type="line"/>
      <point x="155" y="93" type="line"/>
      <point x="155" y="124" type="line"/>
      <point x="186" y="124" type="line"/>
      <point x="186" y="155" type="line"/>
      <point x="217" y="155" type="line"/>
      <point x="217" y="186" type="line"/>
      <point x="248" y="186" type="line"/>
      <point x="248" y="217" type="line"/>
      <point x="279" y="217" type="line"/>
      <point x="279" y="248" type="line"/>
      <point x="310" y="248" type="line"/>
      <point x="310" y="279" type="line"/>
      <point x="341" y="279" type="line"/>
      <point x="341" y="310" type="line"/>
      <point x="372" y="310" type="line"/>
      <point x="372" y="341" type="line"/>
      <point x="403" y="341" type="line"/>
      <point x="403" y="465" type="line"/>
      <point x="31" y="465" type="line"/>
      <point x="31" y="372" type="line"/>
      <point x="279" y="372" type="line"/>
      <point x="279" y="341" type="line"/>
      <point x="248" y="341" type="line"/>
      <point x="248" y="310" type="line"/>
      <point x="217" y="310" type="line"/>
      <point x="217" y="279" type="line"/>
      <point x="186" y="279" type="line"/>
      <point x="186" y="248" type="line"/>
      <point x="155" y="248" type="line"/>
      <point x="155" y="217" type="line"/>
      <point x="124" y="217" type="line"/>
      <point x="124" y="186" type="line"/>
      <point x="93" y="186" type="line"/>
      <point x="93" y="155" type="line"/>
      <point x="62" y="155" type="line"/>
      <point x="62" y="124" type="line"/>
      <point x="31" y="124" type="line"/>
    </contour>
  </outline>
</glyph>
<glyph name="uni0090" format="2">
  <advance width="217.0"/>
  <unicode hex="0090"/>
  <outline>
    <contour>
      <point x="62" y="0" type="line"/>
      <point x="155" y="0" type="line"/>
      <point x="155" y="465" type="line"/>
      <point x="62" y="465" type="line"/>
    </contour>
  </outline>
</glyph>
<glyph name="uni0092" format="2">
  <advance width="248.0"/>
  <unicode hex="0092"/>
  <outline>
    <contour>
      <point x="31" y="682" type="line"/>
      <point x="93" y="682" type="line"/>
      <point x="93" y="713" type="line"/>
      <point x="124" y="713" type="line"/>
      <point x="124" y="744" type="line"/>
      <point x="186" y="744" type="line"/>
      <point x="186" y="775" type="line"/>
      <point x="217" y="775" type="line"/>
      <point x="217" y="806" type="line"/>
      <point x="124" y="806" type="line"/>
      <point x="124" y="775" type="line"/>
      <point x="93" y="775" type="line"/>
      <point x="93" y="744" type="line"/>
      <point x="62" y="744" type="line"/>
      <point x="62" y="713" type="line"/>
      <point x="31" y="713" type="line"/>
    </contour>
  </outline>
</glyph>
<glyph name="uni0095" format="2">
  <advance width="341.0"/>
  <unicode hex="0095"/>
  <outline>
    <contour>
      <point x="31" y="744" type="line"/>
      <point x="310" y="744" type="line"/>
      <point x="310" y="806" type="line"/>
      <point x="31" y="806" type="line"/>
    </contour>
  </outline>
</glyph>
<glyph name="uni0097" format="2">
  <advance width="217.0"/>
  <unicode hex="0097"/>
  <outline>
    <contour>
      <point x="62" y="651" type="line"/>
      <point x="155" y="651" type="line"/>
      <point x="155" y="682" type="line"/>
      <point x="186" y="682" type="line"/>
      <point x="186" y="775" type="line"/>
      <point x="155" y="775" type="line"/>
      <point x="155" y="806" type="line"/>
      <point x="62" y="806" type="line"/>
      <point x="62" y="775" type="line"/>
      <point x="31" y="775" type="line"/>
      <point x="31" y="682" type="line"/>
      <point x="62" y="682" type="line"/>
    </contour>
  </outline>
</glyph>
<glyph name="uni009c" format="2">
  <advance width="217.0"/>
  <unicode hex="009C"/>
  <outline>
    <contour>
      <point x="62" y="217" type="line"/>
      <point x="155" y="217" type="line"/>
      <point x="155" y="341" type="line"/>
      <point x="62" y="341" type="line"/>
    </contour>
  </outline>
</glyph>
<glyph name="uni009f" format="2">
  <advance width="310.0"/>
  <unicode hex="009F"/>
  <outline>
    <contour>
      <point x="124" y="682" type="line"/>
      <point x="186" y="682" type="line"/>
      <point x="186" y="713" type="line"/>
      <point x="217" y="713" type="line"/>
      <point x="217" y="744" type="line"/>
      <point x="248" y="744" type="line"/>
      <point x="248" y="775" type="line"/>
      <point x="279" y="775" type="line"/>
      <point x="279" y="806" type="line"/>
      <point x="186" y="806" type="line"/>
      <point x="186" y="775" type="line"/>
      <point x="124" y="775" type="line"/>
      <point x="124" y="806" type="line"/>
      <point x="31" y="806" type="line"/>
      <point x="31" y="775" type="line"/>
      <point x="62" y="775" type="line"/>
      <point x="62" y="744" type="line"/>
      <point x="93" y="744" type="line"/>
      <point x="93" y="713" type="line"/>
      <point x="124" y="713" type="line"/>
    </contour>
  </outline>
</glyph>
<glyph name="exclamdown" format="2">
  <advance width="217.0"/>
  <unicode hex="00A1"/>
  <outline>
    <contour>
      <point x="62" y="527" type="line"/>
      <point x="155" y="527" type="line"/>
      <point x="155" y="620" type="line"/>
      <point x="62" y="620" type="line"/>
    </contour>
    <contour>
      <point x="62" y="-62" type="line"/>
      <point x="155" y="-62" type="line"/>
      <point x="155" y="341" type="line"/>
      <point x="124" y="341" type="line"/>
      <point x="124" y="372" type="line"/>
      <point x="155" y="372" type="line"/>
      <point x="155" y="403" type="line"/>
      <point x="124" y="403" type="line"/>
      <point x="124" y="434" type="line"/>
      <point x="93" y="434" type="line"/>
      <point x="93" y="403" type="line"/>
      <point x="62" y="403" type="line"/>
      <point x="62" y="372" type="line"/>
      <point x="93" y="372" type="line"/>
      <point x="93" y="341" type="line"/>
      <point x="62" y="341" type="line"/>
    </contour>
  </outline>
</glyph>
<glyph name="yen" format="2">
  <advance width="589.0"/>
  <unicode hex="00A5"/>
  <outline>
    <contour>
      <point x="93" y="155" type="line"/>
      <point x="248" y="155" type="line"/>
      <point x="248" y="0" type="line"/>
      <point x="341" y="0" type="line"/>
      <point x="341" y="155" type="line"/>
      <point x="496" y="155" type="line"/>
      <point x="496" y="217" type="line"/>
      <point x="341" y="217" type="line"/>
      <point x="341" y="279" type="line"/>
      <point x="496" y="279" type="line"/>
      <point x="496" y="341" type="line"/>
      <point x="372" y="341" type="line"/>
      <point x="372" y="372" type="line"/>
      <point x="403" y="372" type="line"/>
      <point x="403" y="434" type="line"/>
      <point x="434" y="434" type="line"/>
      <point x="434" y="465" type="line"/>
      <point x="465" y="465" type="line"/>
      <point x="465" y="527" type="line"/>
      <point x="496" y="527" type="line"/>
      <point x="496" y="558" type="line"/>
      <point x="527" y="558" type="line"/>
      <point x="527" y="620" type="line"/>
      <point x="558" y="620" type="line"/>
      <point x="558" y="651" type="line"/>
      <point x="589" y="651" type="line"/>
      <point x="589" y="682" type="line"/>
      <point x="465" y="682" type="line"/>
      <point x="465" y="651" type="line"/>
      <point x="434" y="651" type="line"/>
      <point x="434" y="589" type="line"/>
      <point x="403" y="589" type="line"/>
      <point x="403" y="558" type="line"/>
      <point x="372" y="558" type="line"/>
      <point x="372" y="496" type="line"/>
      <point x="341" y="496" type="line"/>
      <point x="341" y="465" type="line"/>
      <point x="310" y="465" type="line"/>
      <point x="310" y="434" type="line"/>
      <point x="279" y="434" type="line"/>
      <point x="279" y="465" type="line"/>
      <point x="248" y="465" type="line"/>
      <point x="248" y="496" type="line"/>
      <point x="217" y="496" type="line"/>
      <point x="217" y="558" type="line"/>
      <point x="186" y="558" type="line"/>
      <point x="186" y="589" type="line"/>
      <point x="155" y="589" type="line"/>
      <point x="155" y="651" type="line"/>
      <point x="124" y="651" type="line"/>
      <point x="124" y="682" type="line"/>
      <point x="0" y="682" type="line"/>
      <point x="0" y="651" type="line"/>
      <point x="31" y="651" type="line"/>
      <point x="31" y="620" type="line"/>
      <point x="62" y="620" type="line"/>
      <point x="62" y="558" type="line"/>
      <point x="93" y="558" type="line"/>
      <point x="93" y="527" type="line"/>
      <point x="124" y="527" type="line"/>
      <point x="124" y="465" type="line"/>
      <point x="155" y="465" type="line"/>
      <point x="155" y="434" type="line"/>
      <point x="186" y="434" type="line"/>
      <point x="186" y="372" type="line"/>
      <point x="217" y="372" type="line"/>
      <point x="217" y="341" type="line"/>
      <point x="93" y="341" type="line"/>
      <point x="93" y="279" type="line"/>
      <point x="248" y="279" type="line"/>
      <point x="248" y="217" type="line"/>
      <point x="93" y="217" type="line"/>
    </contour>
  </outline>
</glyph>
<glyph name="dieresis" format="2">
  <advance width="372.0"/>
  <unicode hex="00A8"/>
  <outline>
    <contour>
      <point x="31" y="713" type="line"/>
      <point x="124" y="713" type="line"/>
      <point x="124" y="806" type="line"/>
      <point x="31" y="806" type="line"/>
    </contour>
    <contour>
      <point x="248" y="713" type="line"/>
      <point x="341" y="713" type="line"/>
      <point x="341" y="806" type="line"/>
      <point x="248" y="806" type="line"/>
    </contour>
  </outline>
</glyph>
<glyph name="ordfeminine" format="2">
  <advance width="341.0"/>
  <unicode hex="00AA"/>
  <outline>
    <contour>
      <point x="62" y="434" type="line"/>
      <point x="186" y="434" type="line"/>
      <point x="186" y="465" type="line"/>
      <point x="217" y="465" type="line"/>
      <point x="217" y="434" type="line"/>
      <point x="310" y="434" type="line"/>
      <point x="310" y="496" type="line"/>
      <point x="279" y="496" type="line"/>
      <point x="279" y="682" type="line"/>
      <point x="248" y="682" type="line"/>
      <point x="248" y="713" type="line"/>
      <point x="93" y="713" type="line"/>
      <point x="93" y="682" type="line"/>
      <point x="62" y="682" type="line"/>
      <point x="62" y="620" type="line"/>
      <point x="124" y="620" type="line"/>
      <point x="124" y="651" type="line"/>
      <point x="217" y="651" type="line"/>
      <point x="217" y="620" type="line"/>
      <point x="155" y="620" type="line"/>
      <point x="155" y="589" type="line"/>
      <point x="62" y="589" type="line"/>
      <point x="62" y="558" type="line"/>
      <point x="31" y="558" type="line"/>
      <point x="31" y="465" type="line"/>
      <point x="62" y="465" type="line"/>
    </contour>
    <contour>
      <point x="31" y="341" type="line"/>
      <point x="310" y="341" type="line"/>
      <point x="310" y="403" type="line"/>
      <point x="31" y="403" type="line"/>
    </contour>
    <contour>
      <point x="124" y="558" type="line"/>
      <point x="217" y="558" type="line"/>
      <point x="217" y="527" type="line"/>
      <point x="186" y="527" type="line"/>
      <point x="186" y="496" type="line"/>
      <point x="93" y="496" type="line"/>
      <point x="93" y="527" type="line"/>
      <point x="124" y="527" type="line"/>
    </contour>
  </outline>
</glyph>
<glyph name="guillemotleft" format="2">
  <advance width="558.0"/>
  <unicode hex="00AB"/>
  <outline>
    <contour>
      <point x="155" y="155" type="line"/>
      <point x="186" y="155" type="line"/>
      <point x="186" y="124" type="line"/>
      <point x="217" y="124" type="line"/>
      <point x="217" y="93" type="line"/>
      <point x="341" y="93" type="line"/>
      <point x="341" y="124" type="line"/>
      <point x="310" y="124" type="line"/>
      <point x="310" y="155" type="line"/>
      <point x="279" y="155" type="line"/>
      <point x="279" y="186" type="line"/>
      <point x="248" y="186" type="line"/>
      <point x="248" y="217" type="line"/>
      <point x="217" y="217" type="line"/>
      <point x="217" y="248" type="line"/>
      <point x="186" y="248" type="line"/>
      <point x="186" y="279" type="line"/>
      <point x="155" y="279" type="line"/>
      <point x="155" y="310" type="line"/>
      <point x="124" y="310" type="line"/>
      <point x="124" y="341" type="line"/>
      <point x="155" y="341" type="line"/>
      <point x="155" y="372" type="line"/>
      <point x="186" y="372" type="line"/>
      <point x="186" y="403" type="line"/>
      <point x="217" y="403" type="line"/>
      <point x="217" y="434" type="line"/>
      <point x="248" y="434" type="line"/>
      <point x="248" y="465" type="line"/>
      <point x="279" y="465" type="line"/>
      <point x="279" y="496" type="line"/>
      <point x="310" y="496" type="line"/>
      <point x="310" y="527" type="line"/>
      <point x="341" y="527" type="line"/>
      <point x="341" y="558" type="line"/>
      <point x="217" y="558" type="line"/>
      <point x="217" y="527" type="line"/>
      <point x="186" y="527" type="line"/>
      <point x="186" y="496" type="line"/>
      <point x="155" y="496" type="line"/>
      <point x="155" y="465" type="line"/>
      <point x="124" y="465" type="line"/>
      <point x="124" y="434" type="line"/>
      <point x="93" y="434" type="line"/>
      <point x="93" y="403" type="line"/>
      <point x="62" y="403" type="line"/>
      <point x="62" y="372" type="line"/>
      <point x="31" y="372" type="line"/>
      <point x="31" y="341" type="line"/>
      <point x="0" y="341" type="line"/>
      <point x="0" y="310" type="line"/>
      <point x="31" y="310" type="line"/>
      <point x="31" y="279" type="line"/>
      <point x="62" y="279" type="line"/>
      <point x="62" y="248" type="line"/>
      <point x="93" y="248" type="line"/>
      <point x="93" y="217" type="line"/>
      <point x="124" y="217" type="line"/>
      <point x="124" y="186" type="line"/>
      <point x="155" y="186" type="line"/>
    </contour>
    <contour>
      <point x="248" y="279" type="line"/>
      <point x="279" y="279" type="line"/>
      <point x="279" y="248" type="line"/>
      <point x="310" y="248" type="line"/>
      <point x="310" y="217" type="line"/>
      <point x="341" y="217" type="line"/>
      <point x="341" y="186" type="line"/>
      <point x="372" y="186" type="line"/>
      <point x="372" y="155" type="line"/>
      <point x="403" y="155" type="line"/>
      <point x="403" y="124" type="line"/>
      <point x="434" y="124" type="line"/>
      <point x="434" y="93" type="line"/>
      <point x="558" y="93" type="line"/>
      <point x="558" y="124" type="line"/>
      <point x="527" y="124" type="line"/>
      <point x="527" y="155" type="line"/>
      <point x="496" y="155" type="line"/>
      <point x="496" y="186" type="line"/>
      <point x="465" y="186" type="line"/>
      <point x="465" y="217" type="line"/>
      <point x="434" y="217" type="line"/>
      <point x="434" y="248" type="line"/>
      <point x="403" y="248" type="line"/>
      <point x="403" y="279" type="line"/>
      <point x="372" y="279" type="line"/>
      <point x="372" y="310" type="line"/>
      <point x="341" y="310" type="line"/>
      <point x="341" y="341" type="line"/>
      <point x="372" y="341" type="line"/>
      <point x="372" y="372" type="line"/>
      <point x="403" y="372" type="line"/>
      <point x="403" y="403" type="line"/>
      <point x="434" y="403" type="line"/>
      <point x="434" y="434" type="line"/>
      <point x="465" y="434" type="line"/>
      <point x="465" y="465" type="line"/>
      <point x="496" y="465" type="line"/>
      <point x="496" y="496" type="line"/>
      <point x="527" y="496" type="line"/>
      <point x="527" y="527" type="line"/>
      <point x="558" y="527" type="line"/>
      <point x="558" y="558" type="line"/>
      <point x="434" y="558" type="line"/>
      <point x="434" y="527" type="line"/>
      <point x="403" y="527" type="line"/>
      <point x="403" y="496" type="line"/>
      <point x="372" y="496" type="line"/>
      <point x="372" y="465" type="line"/>
      <point x="341" y="465" type="line"/>
      <point x="341" y="434" type="line"/>
      <point x="310" y="434" type="line"/>
      <point x="310" y="403" type="line"/>
      <point x="279" y="403" type="line"/>
      <point x="279" y="372" type="line"/>
      <point x="248" y="372" type="line"/>
      <point x="248" y="341" type="line"/>
      <point x="217" y="341" type="line"/>
      <point x="217" y="310" type="line"/>
      <point x="248" y="310" type="line"/>
    </contour>
  </outline>
</glyph>
<glyph name="softhyphen" format="2">
  <advance width="434.0"/>
  <unicode hex="00AD"/>
  <outline>
    <contour>
      <point x="31" y="217" type="line"/>
      <point x="403" y="217" type="line"/>
      <point x="403" y="310" type="line"/>
      <point x="31" y="310" type="line"/>
    </contour>
  </outline>
</glyph>
<glyph name="registered" format="2">
  <advance width="713.0"/>
  <unicode hex="00AE"/>
  <outline>
    <contour>
      <point x="155" y="558" type="line"/>
      <point x="217" y="558" type="line"/>
      <point x="217" y="589" type="line"/>
      <point x="279" y="589" type="line"/>
      <point x="279" y="620" type="line"/>
      <point x="434" y="620" type="line"/>
      <point x="434" y="589" type="line"/>
      <point x="496" y="589" type="line"/>
      <point x="496" y="558" type="line"/>
      <point x="558" y="558" type="line"/>
      <point x="558" y="589" type="line"/>
      <point x="527" y="589" type="line"/>
      <point x="527" y="620" type="line"/>
      <point x="465" y="620" type="line"/>
      <point x="465" y="651" type="line"/>
      <point x="248" y="651" type="line"/>
      <point x="248" y="620" type="line"/>
      <point x="186" y="620" type="line"/>
      <point x="186" y="589" type="line"/>
      <point x="155" y="589" type="line"/>
    </contour>
    <contour>
      <point x="124.0" y="527" type="line"/>
      <point x="155.0" y="527" type="line"/>
      <point x="155.0" y="558" type="line"/>
      <point x="124.0" y="558" type="line"/>
    </contour>
    <contour>
      <point x="558.0" y="527" type="line"/>
      <point x="589.0" y="527" type="line"/>
      <point x="589.0" y="558" type="line"/>
      <point x="558.0" y="558" type="line"/>
    </contour>
    <contour>
      <point x="93" y="124" type="line"/>
      <point x="124" y="124" type="line"/>
      <point x="124" y="186" type="line"/>
      <point x="93" y="186" type="line"/>
      <point x="93" y="248" type="line"/>
      <point x="62" y="248" type="line"/>
      <point x="62" y="403" type="line"/>
      <point x="93" y="403" type="line"/>
      <point x="93" y="465" type="line"/>
      <point x="124" y="465" type="line"/>
      <point x="124" y="527" type="line"/>
      <point x="93" y="527" type="line"/>
      <point x="93" y="496" type="line"/>
      <point x="62" y="496" type="line"/>
      <point x="62" y="434" type="line"/>
      <point x="31" y="434" type="line"/>
      <point x="31" y="217" type="line"/>
      <point x="62" y="217" type="line"/>
      <point x="62" y="155" type="line"/>
      <point x="93" y="155" type="line"/>
    </contour>
    <contour>
      <point x="217" y="124" type="line"/>
      <point x="310" y="124" type="line"/>
      <point x="310" y="310" type="line"/>
      <point x="372" y="310" type="line"/>
      <point x="372" y="279" type="line"/>
      <point x="403" y="279" type="line"/>
      <point x="403" y="217" type="line"/>
      <point x="434" y="217" type="line"/>
      <point x="434" y="155" type="line"/>
      <point x="465" y="155" type="line"/>
      <point x="465" y="124" type="line"/>
      <point x="558" y="124" type="line"/>
      <point x="558" y="93" type="line"/>
      <point x="589" y="93" type="line"/>
      <point x="589" y="124" type="line"/>
      <point x="620" y="124" type="line"/>
      <point x="620" y="155" type="line"/>
      <point x="651" y="155" type="line"/>
      <point x="651" y="217" type="line"/>
      <point x="682" y="217" type="line"/>
      <point x="682" y="434" type="line"/>
      <point x="651" y="434" type="line"/>
      <point x="651" y="496" type="line"/>
      <point x="620" y="496" type="line"/>
      <point x="620" y="527" type="line"/>
      <point x="589" y="527" type="line"/>
      <point x="589" y="465" type="line"/>
      <point x="620" y="465" type="line"/>
      <point x="620" y="403" type="line"/>
      <point x="651" y="403" type="line"/>
      <point x="651" y="248" type="line"/>
      <point x="620" y="248" type="line"/>
      <point x="620" y="186" type="line"/>
      <point x="589" y="186" type="line"/>
      <point x="589" y="155" type="line"/>
      <point x="527" y="155" type="line"/>
      <point x="527" y="217" type="line"/>
      <point x="496" y="217" type="line"/>
      <point x="496" y="279" type="line"/>
      <point x="465" y="279" type="line"/>
      <point x="465" y="341" type="line"/>
      <point x="496" y="341" type="line"/>
      <point x="496" y="372" type="line"/>
      <point x="527" y="372" type="line"/>
      <point x="527" y="496" type="line"/>
      <point x="496" y="496" type="line"/>
      <point x="496" y="527" type="line"/>
      <point x="465" y="527" type="line"/>
      <point x="465" y="558" type="line"/>
      <point x="217" y="558" type="line"/>
    </contour>
    <contour>
      <point x="124.0" y="93" type="line"/>
      <point x="155.0" y="93" type="line"/>
      <point x="155.0" y="124" type="line"/>
      <point x="124.0" y="124" type="line"/>
    </contour>
    <contour>
      <point x="155" y="62" type="line"/>
      <point x="186" y="62" type="line"/>
      <point x="186" y="31" type="line"/>
      <point x="248" y="31" type="line"/>
      <point x="248" y="0" type="line"/>
      <point x="465" y="0" type="line"/>
      <point x="465" y="31" type="line"/>
      <point x="527" y="31" type="line"/>
      <point x="527" y="62" type="line"/>
      <point x="558" y="62" type="line"/>
      <point x="558" y="93" type="line"/>
      <point x="496" y="93" type="line"/>
      <point x="496" y="62" type="line"/>
      <point x="434" y="62" type="line"/>
      <point x="434" y="31" type="line"/>
      <point x="279" y="31" type="line"/>
      <point x="279" y="62" type="line"/>
      <point x="217" y="62" type="line"/>
      <point x="217" y="93" type="line"/>
      <point x="155" y="93" type="line"/>
    </contour>
    <contour>
      <point x="403" y="465" type="line"/>
      <point x="434" y="465" type="line"/>
      <point x="434" y="403" type="line"/>
      <point x="403" y="403" type="line"/>
      <point x="403" y="372" type="line"/>
      <point x="310" y="372" type="line"/>
      <point x="310" y="496" type="line"/>
      <point x="403" y="496" type="line"/>
    </contour>
  </outline>
</glyph>
<glyph name="plusminus" format="2">
  <advance width="465.0"/>
  <unicode hex="00B1"/>
  <outline>
    <contour>
      <point x="186" y="186" type="line"/>
      <point x="279" y="186" type="line"/>
      <point x="279" y="341" type="line"/>
      <point x="434" y="341" type="line"/>
      <point x="434" y="434" type="line"/>
      <point x="279" y="434" type="line"/>
      <point x="279" y="589" type="line"/>
      <point x="186" y="589" type="line"/>
      <point x="186" y="434" type="line"/>
      <point x="31" y="434" type="line"/>
      <point x="31" y="341" type="line"/>
      <point x="186" y="341" type="line"/>
    </contour>
    <contour>
      <point x="31" y="0" type="line"/>
      <point x="434" y="0" type="line"/>
      <point x="434" y="93" type="line"/>
      <point x="31" y="93" type="line"/>
    </contour>
  </outline>
</glyph>
<glyph name="twosuperior" format="2">
  <advance width="310.0"/>
  <unicode hex="00B2"/>
  <outline>
    <contour>
      <point x="31" y="372" type="line"/>
      <point x="279" y="372" type="line"/>
      <point x="279" y="434" type="line"/>
      <point x="124" y="434" type="line"/>
      <point x="124" y="465" type="line"/>
      <point x="186" y="465" type="line"/>
      <point x="186" y="496" type="line"/>
      <point x="217" y="496" type="line"/>
      <point x="217" y="527" type="line"/>
      <point x="248" y="527" type="line"/>
      <point x="248" y="558" type="line"/>
      <point x="279" y="558" type="line"/>
      <point x="279" y="651" type="line"/>
      <point x="248" y="651" type="line"/>
      <point x="248" y="682" type="line"/>
      <point x="217" y="682" type="line"/>
      <point x="217" y="713" type="line"/>
      <point x="93" y="713" type="line"/>
      <point x="93" y="682" type="line"/>
      <point x="62" y="682" type="line"/>
      <point x="62" y="651" type="line"/>
      <point x="31" y="651" type="line"/>
      <point x="31" y="589" type="line"/>
      <point x="62" y="589" type="line"/>
      <point x="62" y="558" type="line"/>
      <point x="93" y="558" type="line"/>
      <point x="93" y="589" type="line"/>
      <point x="124" y="589" type="line"/>
      <point x="124" y="620" type="line"/>
      <point x="93" y="620" type="line"/>
      <point x="93" y="651" type="line"/>
      <point x="217" y="651" type="line"/>
      <point x="217" y="589" type="line"/>
      <point x="186" y="589" type="line"/>
      <point x="186" y="558" type="line"/>
      <point x="155" y="558" type="line"/>
      <point x="155" y="527" type="line"/>
      <point x="124" y="527" type="line"/>
      <point x="124" y="496" type="line"/>
      <point x="62" y="496" type="line"/>
      <point x="62" y="465" type="line"/>
      <point x="31" y="465" type="line"/>
    </contour>
  </outline>
</glyph>
<glyph name="threesuperior" format="2">
  <advance width="310.0"/>
  <unicode hex="00B3"/>
  <outline>
    <contour>
      <point x="93" y="372" type="line"/>
      <point x="217" y="372" type="line"/>
      <point x="217" y="403" type="line"/>
      <point x="248" y="403" type="line"/>
      <point x="248" y="434" type="line"/>
      <point x="279" y="434" type="line"/>
      <point x="279" y="496" type="line"/>
      <point x="248" y="496" type="line"/>
      <point x="248" y="527" type="line"/>
      <point x="217" y="527" type="line"/>
      <point x="217" y="558" type="line"/>
      <point x="248" y="558" type="line"/>
      <point x="248" y="589" type="line"/>
      <point x="279" y="589" type="line"/>
      <point x="279" y="651" type="line"/>
      <point x="248" y="651" type="line"/>
      <point x="248" y="682" type="line"/>
      <point x="217" y="682" type="line"/>
      <point x="217" y="713" type="line"/>
      <point x="93" y="713" type="line"/>
      <point x="93" y="682" type="line"/>
      <point x="62" y="682" type="line"/>
      <point x="62" y="651" type="line"/>
      <point x="31" y="651" type="line"/>
      <point x="31" y="589" type="line"/>
      <point x="93" y="589" type="line"/>
      <point x="93" y="651" type="line"/>
      <point x="186" y="651" type="line"/>
      <point x="186" y="620" type="line"/>
      <point x="217" y="620" type="line"/>
      <point x="217" y="589" type="line"/>
      <point x="186" y="589" type="line"/>
      <point x="186" y="558" type="line"/>
      <point x="124" y="558" type="line"/>
      <point x="124" y="527" type="line"/>
      <point x="186" y="527" type="line"/>
      <point x="186" y="496" type="line"/>
      <point x="217" y="496" type="line"/>
      <point x="217" y="465" type="line"/>
      <point x="186" y="465" type="line"/>
      <point x="186" y="434" type="line"/>
      <point x="93" y="434" type="line"/>
      <point x="93" y="496" type="line"/>
      <point x="31" y="496" type="line"/>
      <point x="31" y="434" type="line"/>
      <point x="62" y="434" type="line"/>
      <point x="62" y="403" type="line"/>
      <point x="93" y="403" type="line"/>
    </contour>
  </outline>
</glyph>
<glyph name="paragraph" format="2">
  <advance width="589.0"/>
  <unicode hex="00B6"/>
  <outline>
    <contour>
      <point x="124" y="310" type="line"/>
      <point x="186" y="310" type="line"/>
      <point x="186" y="279" type="line"/>
      <point x="310" y="279" type="line"/>
      <point x="310" y="-186" type="line"/>
      <point x="372" y="-186" type="line"/>
      <point x="372" y="620" type="line"/>
      <point x="403" y="620" type="line"/>
      <point x="403" y="-186" type="line"/>
      <point x="496" y="-186" type="line"/>
      <point x="496" y="620" type="line"/>
      <point x="558" y="620" type="line"/>
      <point x="558" y="682" type="line"/>
      <point x="186" y="682" type="line"/>
      <point x="186" y="651" type="line"/>
      <point x="124" y="651" type="line"/>
      <point x="124" y="620" type="line"/>
      <point x="93" y="620" type="line"/>
      <point x="93" y="589" type="line"/>
      <point x="62" y="589" type="line"/>
      <point x="62" y="527" type="line"/>
      <point x="31" y="527" type="line"/>
      <point x="31" y="434" type="line"/>
      <point x="62" y="434" type="line"/>
      <point x="62" y="372" type="line"/>
      <point x="93" y="372" type="line"/>
      <point x="93" y="341" type="line"/>
      <point x="124" y="341" type="line"/>
    </contour>
  </outline>
</glyph>
<glyph name="ordmasculine" format="2">
  <advance width="310.0"/>
  <unicode hex="00BA"/>
  <outline>
    <contour>
      <point x="93" y="434" type="line"/>
      <point x="217" y="434" type="line"/>
      <point x="217" y="465" type="line"/>
      <point x="248" y="465" type="line"/>
      <point x="248" y="496" type="line"/>
      <point x="279" y="496" type="line"/>
      <point x="279" y="651" type="line"/>
      <point x="248" y="651" type="line"/>
      <point x="248" y="682" type="line"/>
      <point x="217" y="682" type="line"/>
      <point x="217" y="713" type="line"/>
      <point x="93" y="713" type="line"/>
      <point x="93" y="682" type="line"/>
      <point x="62" y="682" type="line"/>
      <point x="62" y="651" type="line"/>
      <point x="31" y="651" type="line"/>
      <point x="31" y="496" type="line"/>
      <point x="62" y="496" type="line"/>
      <point x="62" y="465" type="line"/>
      <point x="93" y="465" type="line"/>
    </contour>
    <contour>
      <point x="31" y="341" type="line"/>
      <point x="279" y="341" type="line"/>
      <point x="279" y="403" type="line"/>
      <point x="31" y="403" type="line"/>
    </contour>
    <contour>
      <point x="186" y="620" type="line"/>
      <point x="217" y="620" type="line"/>
      <point x="217" y="527" type="line"/>
      <point x="186" y="527" type="line"/>
      <point x="186" y="496" type="line"/>
      <point x="124" y="496" type="line"/>
      <point x="124" y="527" type="line"/>
      <point x="93" y="527" type="line"/>
      <point x="93" y="620" type="line"/>
      <point x="124" y="620" type="line"/>
      <point x="124" y="651" type="line"/>
      <point x="186" y="651" type="line"/>
    </contour>
  </outline>
</glyph>
<glyph name="Edieresis" format="2">
  <advance width="496.0"/>
  <unicode hex="00CB"/>
  <outline>
    <contour>
      <point x="93" y="713" type="line"/>
      <point x="186" y="713" type="line"/>
      <point x="186" y="806" type="line"/>
      <point x="93" y="806" type="line"/>
    </contour>
    <contour>
      <point x="310" y="713" type="line"/>
      <point x="403" y="713" type="line"/>
      <point x="403" y="806" type="line"/>
      <point x="310" y="806" type="line"/>
    </contour>
    <contour>
      <point x="31" y="0" type="line"/>
      <point x="465" y="0" type="line"/>
      <point x="465" y="93" type="line"/>
      <point x="124" y="93" type="line"/>
      <point x="124" y="310" type="line"/>
      <point x="434" y="310" type="line"/>
      <point x="434" y="403" type="line"/>
      <point x="124" y="403" type="line"/>
      <point x="124" y="589" type="line"/>
      <point x="465" y="589" type="line"/>
      <point x="465" y="682" type="line"/>
      <point x="31" y="682" type="line"/>
    </contour>
  </outline>
</glyph>
<glyph name="Idieresis" format="2">
  <advance width="217.0"/>
  <unicode hex="00CF"/>
  <outline>
    <contour>
      <point x="0" y="713" type="line"/>
      <point x="93" y="713" type="line"/>
      <point x="93" y="806" type="line"/>
      <point x="0" y="806" type="line"/>
    </contour>
    <contour>
      <point x="124" y="713" type="line"/>
      <point x="217" y="713" type="line"/>
      <point x="217" y="806" type="line"/>
      <point x="124" y="806" type="line"/>
    </contour>
    <contour>
      <point x="62" y="0" type="line"/>
      <point x="155" y="0" type="line"/>
      <point x="155" y="682" type="line"/>
      <point x="62" y="682" type="line"/>
    </contour>
  </outline>
</glyph>
<glyph name="Eth" format="2">
  <advance width="651.0"/>
  <unicode hex="00D0"/>
  <outline>
    <contour>
      <point x="93" y="0" type="line"/>
      <point x="465" y="0" type="line"/>
      <point x="465" y="31" type="line"/>
      <point x="527" y="31" type="line"/>
      <point x="527" y="62" type="line"/>
      <point x="558" y="62" type="line"/>
      <point x="558" y="124" type="line"/>
      <point x="589" y="124" type="line"/>
      <point x="589" y="217" type="line"/>
      <point x="620" y="217" type="line"/>
      <point x="620" y="465" type="line"/>
      <point x="589" y="465" type="line"/>
      <point x="589" y="558" type="line"/>
      <point x="558" y="558" type="line"/>
      <point x="558" y="620" type="line"/>
      <point x="527" y="620" type="line"/>
      <point x="527" y="651" type="line"/>
      <point x="465" y="651" type="line"/>
      <point x="465" y="682" type="line"/>
      <point x="93" y="682" type="line"/>
      <point x="93" y="403" type="line"/>
      <point x="0" y="403" type="line"/>
      <point x="0" y="310" type="line"/>
      <point x="93" y="310" type="line"/>
    </contour>
    <contour>
      <point x="496" y="465" type="line"/>
      <point x="527" y="465" type="line"/>
      <point x="527" y="217" type="line"/>
      <point x="496" y="217" type="line"/>
      <point x="496" y="155" type="line"/>
      <point x="465" y="155" type="line"/>
      <point x="465" y="124" type="line"/>
      <point x="434" y="124" type="line"/>
      <point x="434" y="93" type="line"/>
      <point x="186" y="93" type="line"/>
      <point x="186" y="310" type="line"/>
      <point x="310" y="310" type="line"/>
      <point x="310" y="403" type="line"/>
      <point x="186" y="403" type="line"/>
      <point x="186" y="589" type="line"/>
      <point x="434" y="589" type="line"/>
      <point x="434" y="558" type="line"/>
      <point x="465" y="558" type="line"/>
      <point x="465" y="527" type="line"/>
      <point x="496" y="527" type="line"/>
    </contour>
  </outline>
</glyph>
<glyph name="Ograve" format="2">
  <advance width="651.0"/>
  <unicode hex="00D2"/>
  <outline>
    <contour>
      <point x="93" y="93" type="line"/>
      <point x="124" y="93" type="line"/>
      <point x="124" y="62" type="line"/>
      <point x="155" y="62" type="line"/>
      <point x="155" y="31" type="line"/>
      <point x="217" y="31" type="line"/>
      <point x="217" y="0" type="line"/>
      <point x="434" y="0" type="line"/>
      <point x="434" y="31" type="line"/>
      <point x="496" y="31" type="line"/>
      <point x="496" y="62" type="line"/>
      <point x="527" y="62" type="line"/>
      <point x="527" y="93" type="line"/>
      <point x="558" y="93" type="line"/>
      <point x="558" y="124" type="line"/>
      <point x="589" y="124" type="line"/>
      <point x="589" y="217" type="line"/>
      <point x="620" y="217" type="line"/>
      <point x="620" y="465" type="line"/>
      <point x="589" y="465" type="line"/>
      <point x="589" y="558" type="line"/>
      <point x="558" y="558" type="line"/>
      <point x="558" y="589" type="line"/>
      <point x="527" y="589" type="line"/>
      <point x="527" y="620" type="line"/>
      <point x="496" y="620" type="line"/>
      <point x="496" y="651" type="line"/>
      <point x="434" y="651" type="line"/>
      <point x="434" y="682" type="line"/>
      <point x="403" y="682" type="line"/>
      <point x="403" y="713" type="line"/>
      <point x="372" y="713" type="line"/>
      <point x="372" y="744" type="line"/>
      <point x="341" y="744" type="line"/>
      <point x="341" y="775" type="line"/>
      <point x="310" y="775" type="line"/>
      <point x="310" y="806" type="line"/>
      <point x="217" y="806" type="line"/>
      <point x="217" y="775" type="line"/>
      <point x="248" y="775" type="line"/>
      <point x="248" y="744" type="line"/>
      <point x="310" y="744" type="line"/>
      <point x="310" y="713" type="line"/>
      <point x="341" y="713" type="line"/>
      <point x="341" y="682" type="line"/>
      <point x="217" y="682" type="line"/>
      <point x="217" y="651" type="line"/>
      <point x="155" y="651" type="line"/>
      <point x="155" y="620" type="line"/>
      <point x="124" y="620" type="line"/>
      <point x="124" y="589" type="line"/>
      <point x="93" y="589" type="line"/>
      <point x="93" y="558" type="line"/>
      <point x="62" y="558" type="line"/>
      <point x="62" y="465" type="line"/>
      <point x="31" y="465" type="line"/>
      <point x="31" y="217" type="line"/>
      <point x="62" y="217" type="line"/>
      <point x="62" y="124" type="line"/>
      <point x="93" y="124" type="line"/>
    </contour>
    <contour>
      <point x="496" y="465" type="line"/>
      <point x="527" y="465" type="line"/>
      <point x="527" y="217" type="line"/>
      <point x="496" y="217" type="line"/>
      <point x="496" y="155" type="line"/>
      <point x="465" y="155" type="line"/>
      <point x="465" y="124" type="line"/>
      <point x="403" y="124" type="line"/>
      <point x="403" y="93" type="line"/>
      <point x="248" y="93" type="line"/>
      <point x="248" y="124" type="line"/>
      <point x="186" y="124" type="line"/>
      <point x="186" y="155" type="line"/>
      <point x="155" y="155" type="line"/>
      <point x="155" y="217" type="line"/>
      <point x="124" y="217" type="line"/>
      <point x="124" y="465" type="line"/>
      <point x="155" y="465" type="line"/>
      <point x="155" y="527" type="line"/>
      <point x="186" y="527" type="line"/>
      <point x="186" y="558" type="line"/>
      <point x="248" y="558" type="line"/>
      <point x="248" y="589" type="line"/>
      <point x="403" y="589" type="line"/>
      <point x="403" y="558" type="line"/>
      <point x="465" y="558" type="line"/>
      <point x="465" y="527" type="line"/>
      <point x="496" y="527" type="line"/>
    </contour>
  </outline>
</glyph>
<glyph name="Ugrave" format="2">
  <advance width="527.0"/>
  <unicode hex="00D9"/>
  <outline>
    <contour>
      <point x="279" y="682" type="line"/>
      <point x="341" y="682" type="line"/>
      <point x="341" y="713" type="line"/>
      <point x="310" y="713" type="line"/>
      <point x="310" y="744" type="line"/>
      <point x="279" y="744" type="line"/>
      <point x="279" y="775" type="line"/>
      <point x="248" y="775" type="line"/>
      <point x="248" y="806" type="line"/>
      <point x="155" y="806" type="line"/>
      <point x="155" y="775" type="line"/>
      <point x="186" y="775" type="line"/>
      <point x="186" y="744" type="line"/>
      <point x="248" y="744" type="line"/>
      <point x="248" y="713" type="line"/>
      <point x="279" y="713" type="line"/>
    </contour>
    <contour>
      <point x="62" y="62" type="line"/>
      <point x="93" y="62" type="line"/>
      <point x="93" y="31" type="line"/>
      <point x="155" y="31" type="line"/>
      <point x="155" y="0" type="line"/>
      <point x="372" y="0" type="line"/>
      <point x="372" y="31" type="line"/>
      <point x="434" y="31" type="line"/>
      <point x="434" y="62" type="line"/>
      <point x="465" y="62" type="line"/>
      <point x="465" y="124" type="line"/>
      <point x="496" y="124" type="line"/>
      <point x="496" y="682" type="line"/>
      <point x="403" y="682" type="line"/>
      <point x="403" y="155" type="line"/>
      <point x="372" y="155" type="line"/>
      <point x="372" y="124" type="line"/>
      <point x="341" y="124" type="line"/>
      <point x="341" y="93" type="line"/>
      <point x="186" y="93" type="line"/>
      <point x="186" y="124" type="line"/>
      <point x="155" y="124" type="line"/>
      <point x="155" y="155" type="line"/>
      <point x="124" y="155" type="line"/>
      <point x="124" y="682" type="line"/>
      <point x="31" y="682" type="line"/>
      <point x="31" y="124" type="line"/>
      <point x="62" y="124" type="line"/>
    </contour>
  </outline>
</glyph>
<glyph name="Ucircumflex" format="2">
  <advance width="527.0"/>
  <unicode hex="00DB"/>
  <outline>
    <contour>
      <point x="186" y="713" type="line"/>
      <point x="248" y="713" type="line"/>
      <point x="248" y="744" type="line"/>
      <point x="279" y="744" type="line"/>
      <point x="279" y="713" type="line"/>
      <point x="341" y="713" type="line"/>
      <point x="341" y="744" type="line"/>
      <point x="310" y="744" type="line"/>
      <point x="310" y="775" type="line"/>
      <point x="279" y="775" type="line"/>
      <point x="279" y="806" type="line"/>
      <point x="248" y="806" type="line"/>
      <point x="248" y="775" type="line"/>
      <point x="217" y="775" type="line"/>
      <point x="217" y="744" type="line"/>
      <point x="186" y="744" type="line"/>
    </contour>
    <contour>
      <point x="155.0" y="682" type="line"/>
      <point x="186.0" y="682" type="line"/>
      <point x="186.0" y="713" type="line"/>
      <point x="155.0" y="713" type="line"/>
    </contour>
    <contour>
      <point x="341.0" y="682" type="line"/>
      <point x="372.0" y="682" type="line"/>
      <point x="372.0" y="713" type="line"/>
      <point x="341.0" y="713" type="line"/>
    </contour>
    <contour>
      <point x="62" y="62" type="line"/>
      <point x="93" y="62" type="line"/>
      <point x="93" y="31" type="line"/>
      <point x="155" y="31" type="line"/>
      <point x="155" y="0" type="line"/>
      <point x="372" y="0" type="line"/>
      <point x="372" y="31" type="line"/>
      <point x="434" y="31" type="line"/>
      <point x="434" y="62" type="line"/>
      <point x="465" y="62" type="line"/>
      <point x="465" y="124" type="line"/>
      <point x="496" y="124" type="line"/>
      <point x="496" y="682" type="line"/>
      <point x="403" y="682" type="line"/>
      <point x="403" y="155" type="line"/>
      <point x="372" y="155" type="line"/>
      <point x="372" y="124" type="line"/>
      <point x="341" y="124" type="line"/>
      <point x="341" y="93" type="line"/>
      <point x="186" y="93" type="line"/>
      <point x="186" y="124" type="line"/>
      <point x="155" y="124" type="line"/>
      <point x="155" y="155" type="line"/>
      <point x="124" y="155" type="line"/>
      <point x="124" y="682" type="line"/>
      <point x="31" y="682" type="line"/>
      <point x="31" y="124" type="line"/>
      <point x="62" y="124" type="line"/>
    </contour>
  </outline>
</glyph>
<glyph name="Udieresis" format="2">
  <advance width="527.0"/>
  <unicode hex="00DC"/>
  <outline>
    <contour>
      <point x="93" y="713" type="line"/>
      <point x="186" y="713" type="line"/>
      <point x="186" y="806" type="line"/>
      <point x="93" y="806" type="line"/>
    </contour>
    <contour>
      <point x="341" y="713" type="line"/>
      <point x="434" y="713" type="line"/>
      <point x="434" y="806" type="line"/>
      <point x="341" y="806" type="line"/>
    </contour>
    <contour>
      <point x="62" y="62" type="line"/>
      <point x="93" y="62" type="line"/>
      <point x="93" y="31" type="line"/>
      <point x="155" y="31" type="line"/>
      <point x="155" y="0" type="line"/>
      <point x="372" y="0" type="line"/>
      <point x="372" y="31" type="line"/>
      <point x="434" y="31" type="line"/>
      <point x="434" y="62" type="line"/>
      <point x="465" y="62" type="line"/>
      <point x="465" y="124" type="line"/>
      <point x="496" y="124" type="line"/>
      <point x="496" y="682" type="line"/>
      <point x="403" y="682" type="line"/>
      <point x="403" y="155" type="line"/>
      <point x="372" y="155" type="line"/>
      <point x="372" y="124" type="line"/>
      <point x="341" y="124" type="line"/>
      <point x="341" y="93" type="line"/>
      <point x="186" y="93" type="line"/>
      <point x="186" y="124" type="line"/>
      <point x="155" y="124" type="line"/>
      <point x="155" y="155" type="line"/>
      <point x="124" y="155" type="line"/>
      <point x="124" y="682" type="line"/>
      <point x="31" y="682" type="line"/>
      <point x="31" y="124" type="line"/>
      <point x="62" y="124" type="line"/>
    </contour>
  </outline>
</glyph>
<glyph name="Yacute" format="2">
  <advance width="589.0"/>
  <unicode hex="00DD"/>
  <outline>
    <contour>
      <point x="248" y="682" type="line"/>
      <point x="310" y="682" type="line"/>
      <point x="310" y="713" type="line"/>
      <point x="341" y="713" type="line"/>
      <point x="341" y="744" type="line"/>
      <point x="403" y="744" type="line"/>
      <point x="403" y="775" type="line"/>
      <point x="434" y="775" type="line"/>
      <point x="434" y="806" type="line"/>
      <point x="341" y="806" type="line"/>
      <point x="341" y="775" type="line"/>
      <point x="310" y="775" type="line"/>
      <point x="310" y="744" type="line"/>
      <point x="279" y="744" type="line"/>
      <point x="279" y="713" type="line"/>
      <point x="248" y="713" type="line"/>
    </contour>
    <contour>
      <point x="248" y="0" type="line"/>
      <point x="341" y="0" type="line"/>
      <point x="341" y="341" type="line"/>
      <point x="372" y="341" type="line"/>
      <point x="372" y="372" type="line"/>
      <point x="403" y="372" type="line"/>
      <point x="403" y="434" type="line"/>
      <point x="434" y="434" type="line"/>
      <point x="434" y="465" type="line"/>
      <point x="465" y="465" type="line"/>
      <point x="465" y="527" type="line"/>
      <point x="496" y="527" type="line"/>
      <point x="496" y="558" type="line"/>
      <point x="527" y="558" type="line"/>
      <point x="527" y="620" type="line"/>
      <point x="558" y="620" type="line"/>
      <point x="558" y="651" type="line"/>
      <point x="589" y="651" type="line"/>
      <point x="589" y="682" type="line"/>
      <point x="465" y="682" type="line"/>
      <point x="465" y="651" type="line"/>
      <point x="434" y="651" type="line"/>
      <point x="434" y="589" type="line"/>
      <point x="403" y="589" type="line"/>
      <point x="403" y="558" type="line"/>
      <point x="372" y="558" type="line"/>
      <point x="372" y="496" type="line"/>
      <point x="341" y="496" type="line"/>
      <point x="341" y="465" type="line"/>
      <point x="310" y="465" type="line"/>
      <point x="310" y="434" type="line"/>
      <point x="279" y="434" type="line"/>
      <point x="279" y="465" type="line"/>
      <point x="248" y="465" type="line"/>
      <point x="248" y="496" type="line"/>
      <point x="217" y="496" type="line"/>
      <point x="217" y="558" type="line"/>
      <point x="186" y="558" type="line"/>
      <point x="186" y="589" type="line"/>
      <point x="155" y="589" type="line"/>
      <point x="155" y="651" type="line"/>
      <point x="124" y="651" type="line"/>
      <point x="124" y="682" type="line"/>
      <point x="0" y="682" type="line"/>
      <point x="0" y="651" type="line"/>
      <point x="31" y="651" type="line"/>
      <point x="31" y="620" type="line"/>
      <point x="62" y="620" type="line"/>
      <point x="62" y="558" type="line"/>
      <point x="93" y="558" type="line"/>
      <point x="93" y="527" type="line"/>
      <point x="124" y="527" type="line"/>
      <point x="124" y="465" type="line"/>
      <point x="155" y="465" type="line"/>
      <point x="155" y="434" type="line"/>
      <point x="186" y="434" type="line"/>
      <point x="186" y="372" type="line"/>
      <point x="217" y="372" type="line"/>
      <point x="217" y="341" type="line"/>
      <point x="248" y="341" type="line"/>
    </contour>
  </outline>
</glyph>
<glyph name="Thorn" format="2">
  <advance width="465.0"/>
  <unicode hex="00DE"/>
  <outline>
    <contour>
      <point x="31" y="0" type="line"/>
      <point x="124" y="0" type="line"/>
      <point x="124" y="155" type="line"/>
      <point x="341" y="155" type="line"/>
      <point x="341" y="186" type="line"/>
      <point x="403" y="186" type="line"/>
      <point x="403" y="248" type="line"/>
      <point x="434" y="248" type="line"/>
      <point x="434" y="434" type="line"/>
      <point x="403" y="434" type="line"/>
      <point x="403" y="496" type="line"/>
      <point x="341" y="496" type="line"/>
      <point x="341" y="527" type="line"/>
      <point x="124" y="527" type="line"/>
      <point x="124" y="682" type="line"/>
      <point x="31" y="682" type="line"/>
    </contour>
    <contour>
      <point x="310" y="403" type="line"/>
      <point x="341" y="403" type="line"/>
      <point x="341" y="279" type="line"/>
      <point x="310" y="279" type="line"/>
      <point x="310" y="248" type="line"/>
      <point x="124" y="248" type="line"/>
      <point x="124" y="434" type="line"/>
      <point x="310" y="434" type="line"/>
    </contour>
  </outline>
</glyph>
<glyph name="adieresis" format="2">
  <advance width="465.0"/>
  <unicode hex="00E4"/>
  <outline>
    <contour>
      <point x="93" y="527" type="line"/>
      <point x="186" y="527" type="line"/>
      <point x="186" y="620" type="line"/>
      <point x="93" y="620" type="line"/>
    </contour>
    <contour>
      <point x="279" y="527" type="line"/>
      <point x="372" y="527" type="line"/>
      <point x="372" y="620" type="line"/>
      <point x="279" y="620" type="line"/>
    </contour>
    <contour>
      <point x="31" y="62" type="line"/>
      <point x="62" y="62" type="line"/>
      <point x="62" y="31" type="line"/>
      <point x="93" y="31" type="line"/>
      <point x="93" y="0" type="line"/>
      <point x="248" y="0" type="line"/>
      <point x="248" y="31" type="line"/>
      <point x="279" y="31" type="line"/>
      <point x="279" y="62" type="line"/>
      <point x="310" y="62" type="line"/>
      <point x="310" y="31" type="line"/>
      <point x="341" y="31" type="line"/>
      <point x="341" y="0" type="line"/>
      <point x="465" y="0" type="line"/>
      <point x="465" y="93" type="line"/>
      <point x="403" y="93" type="line"/>
      <point x="403" y="403" type="line"/>
      <point x="372" y="403" type="line"/>
      <point x="372" y="434" type="line"/>
      <point x="310" y="434" type="line"/>
      <point x="310" y="465" type="line"/>
      <point x="155" y="465" type="line"/>
      <point x="155" y="434" type="line"/>
      <point x="93" y="434" type="line"/>
      <point x="93" y="403" type="line"/>
      <point x="62" y="403" type="line"/>
      <point x="62" y="310" type="line"/>
      <point x="155" y="310" type="line"/>
      <point x="155" y="341" type="line"/>
      <point x="186" y="341" type="line"/>
      <point x="186" y="372" type="line"/>
      <point x="279" y="372" type="line"/>
      <point x="279" y="341" type="line"/>
      <point x="310" y="341" type="line"/>
      <point x="310" y="279" type="line"/>
      <point x="155" y="279" type="line"/>
      <point x="155" y="248" type="line"/>
      <point x="62" y="248" type="line"/>
      <point x="62" y="186" type="line"/>
      <point x="31" y="186" type="line"/>
    </contour>
    <contour>
      <point x="155" y="155" type="line"/>
      <point x="155" y="186" type="line"/>
      <point x="279" y="186" type="line"/>
      <point x="279" y="217" type="line"/>
      <point x="310" y="217" type="line"/>
      <point x="310" y="155" type="line"/>
      <point x="279" y="155" type="line"/>
      <point x="279" y="124" type="line"/>
      <point x="248" y="124" type="line"/>
      <point x="248" y="93" type="line"/>
      <point x="155" y="93" type="line"/>
      <point x="155" y="124" type="line"/>
      <point x="124" y="124" type="line"/>
      <point x="124" y="155" type="line"/>
    </contour>
  </outline>
</glyph>
<glyph name="iacute" format="2">
  <advance width="217.0"/>
  <unicode hex="00ED"/>
  <outline>
    <contour>
      <point x="31" y="558" type="line"/>
      <point x="124" y="558" type="line"/>
      <point x="124" y="589" type="line"/>
      <point x="155" y="589" type="line"/>
      <point x="155" y="620" type="line"/>
      <point x="186" y="620" type="line"/>
      <point x="186" y="651" type="line"/>
      <point x="217" y="651" type="line"/>
      <point x="217" y="682" type="line"/>
      <point x="124" y="682" type="line"/>
      <point x="124" y="651" type="line"/>
      <point x="93" y="651" type="line"/>
      <point x="93" y="620" type="line"/>
      <point x="62" y="620" type="line"/>
      <point x="62" y="589" type="line"/>
      <point x="31" y="589" type="line"/>
    </contour>
    <contour>
      <point x="62" y="0" type="line"/>
      <point x="155" y="0" type="line"/>
      <point x="155" y="496" type="line"/>
      <point x="62" y="496" type="line"/>
    </contour>
  </outline>
</glyph>
<glyph name="eth" format="2">
  <advance width="465.0"/>
  <unicode hex="00F0"/>
  <outline>
    <contour>
      <point x="62" y="62" type="line"/>
      <point x="93" y="62" type="line"/>
      <point x="93" y="31" type="line"/>
      <point x="155" y="31" type="line"/>
      <point x="155" y="0" type="line"/>
      <point x="279" y="0" type="line"/>
      <point x="279" y="31" type="line"/>
      <point x="372" y="31" type="line"/>
      <point x="372" y="62" type="line"/>
      <point x="403" y="62" type="line"/>
      <point x="403" y="124" type="line"/>
      <point x="434" y="124" type="line"/>
      <point x="434" y="465" type="line"/>
      <point x="403" y="465" type="line"/>
      <point x="403" y="527" type="line"/>
      <point x="434" y="527" type="line"/>
      <point x="434" y="620" type="line"/>
      <point x="372" y="620" type="line"/>
      <point x="372" y="651" type="line"/>
      <point x="341" y="651" type="line"/>
      <point x="341" y="682" type="line"/>
      <point x="217" y="682" type="line"/>
      <point x="217" y="651" type="line"/>
      <point x="248" y="651" type="line"/>
      <point x="248" y="620" type="line"/>
      <point x="155" y="620" type="line"/>
      <point x="155" y="527" type="line"/>
      <point x="310" y="527" type="line"/>
      <point x="310" y="465" type="line"/>
      <point x="341" y="465" type="line"/>
      <point x="341" y="403" type="line"/>
      <point x="310" y="403" type="line"/>
      <point x="310" y="434" type="line"/>
      <point x="279" y="434" type="line"/>
      <point x="279" y="465" type="line"/>
      <point x="155" y="465" type="line"/>
      <point x="155" y="434" type="line"/>
      <point x="93" y="434" type="line"/>
      <point x="93" y="403" type="line"/>
      <point x="62" y="403" type="line"/>
      <point x="62" y="341" type="line"/>
      <point x="31" y="341" type="line"/>
      <point x="31" y="124" type="line"/>
      <point x="62" y="124" type="line"/>
    </contour>
    <contour>
      <point x="310" y="310" type="line"/>
      <point x="341" y="310" type="line"/>
      <point x="341" y="155" type="line"/>
      <point x="310" y="155" type="line"/>
      <point x="310" y="124" type="line"/>
      <point x="279" y="124" type="line"/>
      <point x="279" y="93" type="line"/>
      <point x="186" y="93" type="line"/>
      <point x="186" y="124" type="line"/>
      <point x="155" y="124" type="line"/>
      <point x="155" y="155" type="line"/>
      <point x="124" y="155" type="line"/>
      <point x="124" y="310" type="line"/>
      <point x="155" y="310" type="line"/>
      <point x="155" y="341" type="line"/>
      <point x="186" y="341" type="line"/>
      <point x="186" y="372" type="line"/>
      <point x="279" y="372" type="line"/>
      <point x="279" y="341" type="line"/>
      <point x="310" y="341" type="line"/>
    </contour>
  </outline>
</glyph>
<glyph name="oacute" format="2">
  <advance width="465.0"/>
  <unicode hex="00F3"/>
  <outline>
    <contour>
      <point x="155" y="527" type="line"/>
      <point x="217" y="527" type="line"/>
      <point x="217" y="558" type="line"/>
      <point x="248" y="558" type="line"/>
      <point x="248" y="589" type="line"/>
      <point x="310" y="589" type="line"/>
      <point x="310" y="620" type="line"/>
      <point x="341" y="620" type="line"/>
      <point x="341" y="651" type="line"/>
      <point x="248" y="651" type="line"/>
      <point x="248" y="620" type="line"/>
      <point x="217" y="620" type="line"/>
      <point x="217" y="589" type="line"/>
      <point x="186" y="589" type="line"/>
      <point x="186" y="558" type="line"/>
      <point x="155" y="558" type="line"/>
    </contour>
    <contour>
      <point x="62" y="62" type="line"/>
      <point x="93" y="62" type="line"/>
      <point x="93" y="31" type="line"/>
      <point x="155" y="31" type="line"/>
      <point x="155" y="0" type="line"/>
      <point x="310" y="0" type="line"/>
      <point x="310" y="31" type="line"/>
      <point x="372" y="31" type="line"/>
      <point x="372" y="62" type="line"/>
      <point x="403" y="62" type="line"/>
      <point x="403" y="124" type="line"/>
      <point x="434" y="124" type="line"/>
      <point x="434" y="341" type="line"/>
      <point x="403" y="341" type="line"/>
      <point x="403" y="403" type="line"/>
      <point x="372" y="403" type="line"/>
      <point x="372" y="434" type="line"/>
      <point x="310" y="434" type="line"/>
      <point x="310" y="465" type="line"/>
      <point x="155" y="465" type="line"/>
      <point x="155" y="434" type="line"/>
      <point x="93" y="434" type="line"/>
      <point x="93" y="403" type="line"/>
      <point x="62" y="403" type="line"/>
      <point x="62" y="341" type="line"/>
      <point x="31" y="341" type="line"/>
      <point x="31" y="124" type="line"/>
      <point x="62" y="124" type="line"/>
    </contour>
    <contour>
      <point x="310" y="310" type="line"/>
      <point x="341" y="310" type="line"/>
      <point x="341" y="155" type="line"/>
      <point x="310" y="155" type="line"/>
      <point x="310" y="93" type="line"/>
      <point x="155" y="93" type="line"/>
      <point x="155" y="155" type="line"/>
      <point x="124" y="155" type="line"/>
      <point x="124" y="310" type="line"/>
      <point x="155" y="310" type="line"/>
      <point x="155" y="372" type="line"/>
      <point x="310" y="372" type="line"/>
    </contour>
  </outline>
</glyph>
<glyph name="divide" format="2">
  <advance width="465.0"/>
  <unicode hex="00F7"/>
  <outline>
    <contour>
      <point x="186" y="372" type="line"/>
      <point x="279" y="372" type="line"/>
      <point x="279" y="496" type="line"/>
      <point x="186" y="496" type="line"/>
    </contour>
    <contour>
      <point x="31" y="217" type="line"/>
      <point x="434" y="217" type="line"/>
      <point x="434" y="310" type="line"/>
      <point x="31" y="310" type="line"/>
    </contour>
    <contour>
      <point x="186" y="31" type="line"/>
      <point x="279" y="31" type="line"/>
      <point x="279" y="155" type="line"/>
      <point x="186" y="155" type="line"/>
    </contour>
  </outline>
</glyph>
<glyph name="udieresis" format="2">
  <advance width="434.0"/>
  <unicode hex="00FC"/>
  <outline>
    <contour>
      <point x="62" y="527" type="line"/>
      <point x="155" y="527" type="line"/>
      <point x="155" y="620" type="line"/>
      <point x="62" y="620" type="line"/>
    </contour>
    <contour>
      <point x="279" y="527" type="line"/>
      <point x="372" y="527" type="line"/>
      <point x="372" y="620" type="line"/>
      <point x="279" y="620" type="line"/>
    </contour>
    <contour>
      <point x="62" y="31" type="line"/>
      <point x="124" y="31" type="line"/>
      <point x="124" y="0" type="line"/>
      <point x="248" y="0" type="line"/>
      <point x="248" y="31" type="line"/>
      <point x="279" y="31" type="line"/>
      <point x="279" y="62" type="line"/>
      <point x="310" y="62" type="line"/>
      <point x="310" y="0" type="line"/>
      <point x="403" y="0" type="line"/>
      <point x="403" y="465" type="line"/>
      <point x="310" y="465" type="line"/>
      <point x="310" y="124" type="line"/>
      <point x="279" y="124" type="line"/>
      <point x="279" y="93" type="line"/>
      <point x="155" y="93" type="line"/>
      <point x="155" y="124" type="line"/>
      <point x="124" y="124" type="line"/>
      <point x="124" y="465" type="line"/>
      <point x="31" y="465" type="line"/>
      <point x="31" y="93" type="line"/>
      <point x="62" y="93" type="line"/>
    </contour>
  </outline>
</glyph>
